<?xml version="1.0" encoding="UTF-8"?>
<!DOCTYPE svg PUBLIC "-//W3C//DTD SVG 1.1//EN" "http://www.w3.org/Graphics/SVG/1.1/DTD/svg11.dtd">
<svg xmlns="http://www.w3.org/2000/svg" version="1.1" width="512px" height="512px" style="shape-rendering:geometricPrecision; text-rendering:geometricPrecision; image-rendering:optimizeQuality; fill-rule:evenodd; clip-rule:evenodd" xmlns:xlink="http://www.w3.org/1999/xlink">
<g><path style="opacity:0.992" fill="#000000" d="M 42.5,32.5 C 92.3317,31.335 142.332,31.1683 192.5,32C 208.167,47.6667 223.833,63.3333 239.5,79C 189.5,79.6667 139.5,79.6667 89.5,79C 73.9652,63.2982 58.2986,47.7982 42.5,32.5 Z"/></g>
<g><path style="opacity:0.992" fill="#000000" d="M 31.5,42.5 C 47.4652,57.9649 63.2986,73.6315 79,89.5C 79.6667,139.5 79.6667,189.5 79,239.5C 63.3333,223.833 47.6667,208.167 32,192.5C 31.5,142.501 31.3333,92.5011 31.5,42.5 Z"/></g>
<g><path style="opacity:0.998" fill="#000000" d="M 95.5,95.5 C 145.501,95.3333 195.501,95.5 245.5,96C 250,97.8333 253.167,101 255,105.5C 255.667,152.167 255.667,198.833 255,245.5C 253.167,250 250,253.167 245.5,255C 198.833,255.667 152.167,255.667 105.5,255C 101,253.167 97.8333,250 96,245.5C 95.5,195.501 95.3333,145.501 95.5,95.5 Z"/></g>
<g><path style="opacity:0.985" fill="#000000" d="M 271.5,95.5 C 316.168,95.3333 360.835,95.5 405.5,96C 410,97.8333 413.167,101 415,105.5C 415.333,120.833 415.667,136.167 416,151.5C 423.034,143.09 431.534,141.256 441.5,146C 448.069,152.945 449.236,160.778 445,169.5C 432.438,182.731 419.272,195.231 405.5,207C 399.903,208.091 394.57,207.424 389.5,205C 376.269,192.438 363.769,179.272 352,165.5C 349.833,149 357,141.833 373.5,144C 377.241,145.738 380.408,148.238 383,151.5C 383.5,143.507 383.666,135.507 383.5,127.5C 346.167,127.5 308.833,127.5 271.5,127.5C 271.5,116.833 271.5,106.167 271.5,95.5 Z"/></g>
<g><path style="opacity:0.993" fill="#000000" d="M 329.5,223.5 C 376.168,223.333 422.835,223.5 469.5,224C 474,225.833 477.167,229 479,233.5C 479.667,280.167 479.667,326.833 479,373.5C 474.527,382.482 467.36,385.649 457.5,383C 453,381.167 449.833,378 448,373.5C 447.5,334.168 447.333,294.835 447.5,255.5C 408.165,255.667 368.832,255.5 329.5,255C 322.513,252.193 319.18,247.027 319.5,239.5C 319.302,231.885 322.635,226.551 329.5,223.5 Z"/></g>
<g><path style="opacity:0.985" fill="#000000" d="M 95.5,271.5 C 106.167,271.5 116.833,271.5 127.5,271.5C 127.5,308.833 127.5,346.167 127.5,383.5C 135.507,383.666 143.507,383.5 151.5,383C 143.09,375.966 141.256,367.466 146,357.5C 152.945,350.931 160.778,349.764 169.5,354C 182.731,366.562 195.231,379.728 207,393.5C 208.091,399.097 207.424,404.43 205,409.5C 192.438,422.731 179.272,435.231 165.5,447C 149,449.167 141.833,442 144,425.5C 145.738,421.759 148.238,418.592 151.5,416C 136.167,415.667 120.833,415.333 105.5,415C 101,413.167 97.8333,410 96,405.5C 95.5,360.835 95.3333,316.168 95.5,271.5 Z"/></g>
<g><path style="opacity:0.993" fill="#000000" d="M 281.5,271.5 C 328.168,271.333 374.835,271.5 421.5,272C 426,273.833 429.167,277 431,281.5C 431.667,328.167 431.667,374.833 431,421.5C 426.527,430.482 419.36,433.649 409.5,431C 405,429.167 401.833,426 400,421.5C 399.5,382.168 399.333,342.835 399.5,303.5C 360.165,303.667 320.832,303.5 281.5,303C 274.513,300.193 271.18,295.027 271.5,287.5C 271.302,279.885 274.635,274.551 281.5,271.5 Z"/></g>
<g><path style="opacity:0.998" fill="#000000" d="M 233.5,319.5 C 280.168,319.333 326.835,319.5 373.5,320C 378,321.833 381.167,325 383,329.5C 383.667,376.167 383.667,422.833 383,469.5C 381.167,474 378,477.167 373.5,479C 326.833,479.667 280.167,479.667 233.5,479C 229,477.167 225.833,474 224,469.5C 223.333,422.833 223.333,376.167 224,329.5C 226.022,324.98 229.189,321.647 233.5,319.5 Z"/></g>
</svg>
