<?xml version="1.0" encoding="UTF-8"?>
<!DOCTYPE svg PUBLIC "-//W3C//DTD SVG 1.1//EN" "http://www.w3.org/Graphics/SVG/1.1/DTD/svg11.dtd">
<svg xmlns="http://www.w3.org/2000/svg" version="1.1" width="512px" height="512px" style="shape-rendering:geometricPrecision; text-rendering:geometricPrecision; image-rendering:optimizeQuality; fill-rule:evenodd; clip-rule:evenodd" xmlns:xlink="http://www.w3.org/1999/xlink">
<g><path style="opacity:0.947" fill="#000000" d="M 511.5,200.5 C 511.5,246.167 511.5,291.833 511.5,337.5C 509.628,340.529 506.961,342.695 503.5,344C 485.503,344.5 467.503,344.667 449.5,344.5C 449.667,367.502 449.5,390.502 449,413.5C 446.905,421.927 441.739,427.427 433.5,430C 403.502,430.5 373.502,430.667 343.5,430.5C 343.667,448.836 343.5,467.17 343,485.5C 341.053,493.114 336.22,497.614 328.5,499C 223.5,499.667 118.5,499.667 13.5,499C 7.1673,497.165 2.50064,493.332 -0.5,487.5C -0.5,415.833 -0.5,344.167 -0.5,272.5C 2.49279,266.678 7.15946,262.844 13.5,261C 119.876,260.009 226.21,260.342 332.5,262C 338.164,264.332 341.664,268.499 343,274.5C 343.5,321.499 343.667,368.499 343.5,415.5C 371.169,415.667 398.835,415.5 426.5,415C 429.494,414.594 431.661,413.094 433,410.5C 433.5,388.503 433.667,366.503 433.5,344.5C 415.497,344.667 397.497,344.5 379.5,344C 375.572,342.407 373.072,339.573 372,335.5C 371.333,324.5 371.333,313.5 372,302.5C 375.892,296.741 380.559,296.074 386,300.5C 387.417,309.752 387.917,319.085 387.5,328.5C 423.833,328.5 460.167,328.5 496.5,328.5C 496.667,287.832 496.5,247.165 496,206.5C 488.167,198.667 480.333,190.833 472.5,183C 444.169,182.5 415.835,182.333 387.5,182.5C 387.667,212.502 387.5,242.502 387,272.5C 385.305,277.599 381.805,279.432 376.5,278C 374.333,277.167 372.833,275.667 372,273.5C 371.021,239.773 371.354,206.106 373,172.5C 374.663,170.083 376.829,168.25 379.5,167C 397.497,166.5 415.497,166.333 433.5,166.5C 433.667,141.831 433.5,117.164 433,92.5C 431.833,91.3333 430.667,90.1667 429.5,89C 400.835,88.5 372.169,88.3334 343.5,88.5C 343.667,137.834 343.5,187.168 343,236.5C 341.489,242.365 337.989,246.532 332.5,249C 226.21,250.658 119.876,250.991 13.5,250C 7.15946,248.156 2.49279,244.322 -0.5,238.5C -0.5,166.833 -0.5,95.1667 -0.5,23.5C 2.50064,17.6684 7.1673,13.8351 13.5,12C 89.8333,11.3333 166.167,11.3333 242.5,12C 248.448,14.4329 249.948,18.5996 247,24.5C 246.097,25.7014 244.931,26.5348 243.5,27C 185.834,27.5 128.168,27.6667 70.5,27.5C 70.5,35.8333 70.5,44.1667 70.5,52.5C 156.167,52.5 241.833,52.5 327.5,52.5C 327.816,44.2476 327.482,36.081 326.5,28C 308.5,27.6667 290.5,27.3333 272.5,27C 266.741,23.1081 266.074,18.4414 270.5,13C 271.5,12.6667 272.5,12.3333 273.5,12C 292.167,11.3333 310.833,11.3333 329.5,12C 336.667,13.8333 341.167,18.3333 343,25.5C 343.5,41.1631 343.667,56.8298 343.5,72.5C 373.169,72.3334 402.835,72.5 432.5,73C 441.333,75.1667 446.833,80.6667 449,89.5C 449.5,115.165 449.667,140.831 449.5,166.5C 459.605,166.051 469.605,166.551 479.5,168C 491.065,178.064 501.732,188.898 511.5,200.5 Z M 16.5,27.5 C 29.1667,27.5 41.8333,27.5 54.5,27.5C 54.5,35.8333 54.5,44.1667 54.5,52.5C 41.1667,52.5 27.8333,52.5 14.5,52.5C 14.3337,45.1591 14.5003,37.8258 15,30.5C 15.5133,29.4734 16.0133,28.4734 16.5,27.5 Z M 14.5,68.5 C 118.833,68.5 223.167,68.5 327.5,68.5C 327.667,123.501 327.5,178.501 327,233.5C 275.237,234.166 223.403,234.499 171.5,234.5C 119.597,234.499 67.7632,234.166 16,233.5C 14.5085,178.584 14.0085,123.584 14.5,68.5 Z M 86.5,107.5 C 87.5,107.5 88.5,107.5 89.5,107.5C 89.3334,123.837 89.5001,140.17 90,156.5C 91.5577,158.768 93.7244,159.934 96.5,160C 111.496,160.5 126.496,160.667 141.5,160.5C 134.567,185.926 117.9,198.093 91.5,197C 67.4621,191.795 54.1287,176.962 51.5,152.5C 53.1179,129.562 64.7846,114.562 86.5,107.5 Z M 105.5,107.5 C 124.945,112.611 136.945,124.945 141.5,144.5C 129.5,144.5 117.5,144.5 105.5,144.5C 105.5,132.167 105.5,119.833 105.5,107.5 Z M 16.5,276.5 C 29.1667,276.5 41.8333,276.5 54.5,276.5C 54.5,284.833 54.5,293.167 54.5,301.5C 41.1667,301.5 27.8333,301.5 14.5,301.5C 14.3337,294.159 14.5003,286.826 15,279.5C 15.5133,278.473 16.0133,277.473 16.5,276.5 Z M 70.5,276.5 C 155.834,276.333 241.167,276.5 326.5,277C 327.482,285.081 327.816,293.248 327.5,301.5C 241.833,301.5 156.167,301.5 70.5,301.5C 70.5,293.167 70.5,284.833 70.5,276.5 Z M 14.5,317.5 C 118.833,317.5 223.167,317.5 327.5,317.5C 327.667,372.501 327.5,427.501 327,482.5C 275.237,483.166 223.403,483.499 171.5,483.5C 119.597,483.499 67.7632,483.166 16,482.5C 14.5085,427.584 14.0085,372.584 14.5,317.5 Z M 51.5,353.5 C 72.5,353.5 93.5,353.5 114.5,353.5C 114.5,359.167 114.5,364.833 114.5,370.5C 93.5,370.5 72.5,370.5 51.5,370.5C 51.5,364.833 51.5,359.167 51.5,353.5 Z M 130.5,353.5 C 183.833,353.5 237.167,353.5 290.5,353.5C 290.5,359.167 290.5,364.833 290.5,370.5C 237.167,370.5 183.833,370.5 130.5,370.5C 130.5,364.833 130.5,359.167 130.5,353.5 Z M 51.5,386.5 C 72.5,386.5 93.5,386.5 114.5,386.5C 114.5,392.5 114.5,398.5 114.5,404.5C 93.5,404.5 72.5,404.5 51.5,404.5C 51.5,398.5 51.5,392.5 51.5,386.5 Z M 130.5,386.5 C 183.833,386.5 237.167,386.5 290.5,386.5C 290.5,392.5 290.5,398.5 290.5,404.5C 237.167,404.5 183.833,404.5 130.5,404.5C 130.5,398.5 130.5,392.5 130.5,386.5 Z M 130.5,420.5 C 183.833,420.5 237.167,420.5 290.5,420.5C 290.5,426.167 290.5,431.833 290.5,437.5C 237.167,437.5 183.833,437.5 130.5,437.5C 130.5,431.833 130.5,426.167 130.5,420.5 Z"/></g>
<g><path style="opacity:0.93" fill="#000000" d="M 90.5,90.5 C 127.7,90.2062 150.2,108.206 158,144.5C 160.027,170.61 150.194,190.777 128.5,205C 104.673,217.345 81.6728,216.011 59.5,201C 34.8638,178.894 29.3638,152.727 43,122.5C 53.7948,104.197 69.6281,93.5306 90.5,90.5 Z M 86.5,107.5 C 64.7846,114.562 53.1179,129.562 51.5,152.5C 54.1287,176.962 67.4621,191.795 91.5,197C 117.9,198.093 134.567,185.926 141.5,160.5C 126.496,160.667 111.496,160.5 96.5,160C 93.7244,159.934 91.5577,158.768 90,156.5C 89.5001,140.17 89.3334,123.837 89.5,107.5C 88.5,107.5 87.5,107.5 86.5,107.5 Z M 105.5,107.5 C 105.5,119.833 105.5,132.167 105.5,144.5C 117.5,144.5 129.5,144.5 141.5,144.5C 136.945,124.945 124.945,112.611 105.5,107.5 Z"/></g>
<g><path style="opacity:0.93" fill="#000000" d="M 172.5,94.5 C 215.835,94.3333 259.168,94.5 302.5,95C 306.753,98.4204 307.587,102.587 305,107.5C 304.097,108.701 302.931,109.535 301.5,110C 258.833,110.667 216.167,110.667 173.5,110C 168.776,107.565 167.276,103.731 169,98.5C 170.376,97.2949 171.542,95.9616 172.5,94.5 Z"/></g>
<g><path style="opacity:0.903" fill="#000000" d="M 173.5,127.5 C 181.507,127.334 189.507,127.5 197.5,128C 201.861,130.226 203.361,133.726 202,138.5C 201.167,140.667 199.667,142.167 197.5,143C 189.5,143.667 181.5,143.667 173.5,143C 168.776,140.565 167.276,136.731 169,131.5C 170.397,129.93 171.897,128.596 173.5,127.5 Z"/></g>
<g><path style="opacity:0.926" fill="#000000" d="M 215.5,127.5 C 244.169,127.333 272.835,127.5 301.5,128C 306.224,130.435 307.724,134.269 306,139.5C 304.786,141.049 303.286,142.215 301.5,143C 272.833,143.667 244.167,143.667 215.5,143C 210.465,139.987 209.298,135.82 212,130.5C 213.145,129.364 214.312,128.364 215.5,127.5 Z"/></g>
<g><path style="opacity:0.93" fill="#000000" d="M 173.5,160.5 C 216.168,160.333 258.835,160.5 301.5,161C 306.069,163.541 307.569,167.375 306,172.5C 304.833,173.667 303.667,174.833 302.5,176C 259.167,176.667 215.833,176.667 172.5,176C 166.939,170.353 167.272,165.186 173.5,160.5 Z"/></g>
<g><path style="opacity:0.926" fill="#000000" d="M 174.5,193.5 C 203.169,193.333 231.835,193.5 260.5,194C 266.448,196.433 267.948,200.6 265,206.5C 264.167,207.333 263.333,208.167 262.5,209C 232.5,209.667 202.5,209.667 172.5,209C 168.251,205.623 167.418,201.457 170,196.5C 171.409,195.219 172.909,194.219 174.5,193.5 Z"/></g>
<g><path style="opacity:0.903" fill="#000000" d="M 279.5,193.5 C 287.585,193.099 295.585,193.599 303.5,195C 307.779,200.033 307.446,204.7 302.5,209C 294.167,209.667 285.833,209.667 277.5,209C 271.731,202.8 272.398,197.633 279.5,193.5 Z"/></g>
<g><path style="opacity:0.922" fill="#000000" d="M 411.5,209.5 C 431.503,209.333 451.503,209.5 471.5,210C 476.752,213.086 477.752,217.253 474.5,222.5C 473.335,223.584 472.002,224.417 470.5,225C 451.167,225.667 431.833,225.667 412.5,225C 407.776,222.565 406.276,218.731 408,213.5C 408.69,211.65 409.856,210.316 411.5,209.5 Z"/></g>
<g><path style="opacity:0.925" fill="#000000" d="M 414.5,236.5 C 432.503,236.333 450.503,236.5 468.5,237C 477.297,239.983 478.631,244.983 472.5,252C 452.167,252.667 431.833,252.667 411.5,252C 409.667,251.5 408.5,250.333 408,248.5C 405.816,241.902 407.982,237.902 414.5,236.5 Z"/></g>
<g><path style="opacity:0.921" fill="#000000" d="M 412.5,264.5 C 432.169,264.333 451.836,264.5 471.5,265C 476.299,268.071 477.465,272.238 475,277.5C 474.097,278.701 472.931,279.535 471.5,280C 451.5,280.667 431.5,280.667 411.5,280C 407.723,277.089 406.556,273.256 408,268.5C 409.397,266.93 410.897,265.596 412.5,264.5 Z"/></g>
<g><path style="opacity:0.913" fill="#000000" d="M 411.5,292.5 C 422.505,292.333 433.505,292.5 444.5,293C 450.33,299.006 449.663,304.006 442.5,308C 432.833,308.667 423.167,308.667 413.5,308C 407.842,306.171 406.008,302.337 408,296.5C 408.69,294.65 409.856,293.316 411.5,292.5 Z"/></g>
<g><path style="opacity:0.94" fill="#000000" d="M 41.5,337.5 C 128.167,337.333 214.834,337.5 301.5,338C 302.931,338.465 304.097,339.299 305,340.5C 306.653,376.749 306.987,413.082 306,449.5C 305.167,450.333 304.333,451.167 303.5,452C 235.582,453.66 167.582,453.993 99.5,453C 94.52,450.149 93.1867,445.982 95.5,440.5C 96.5,439.667 97.5,438.833 98.5,438C 103.823,437.501 109.156,437.334 114.5,437.5C 114.5,431.833 114.5,426.167 114.5,420.5C 93.5,420.5 72.5,420.5 51.5,420.5C 51.5,426.167 51.5,431.833 51.5,437.5C 57.8421,437.334 64.1754,437.5 70.5,438C 74.2771,440.911 75.4437,444.744 74,449.5C 72.786,451.049 71.286,452.215 69.5,453C 59.8333,453.667 50.1667,453.667 40.5,453C 37.8981,452.065 36.3981,450.232 36,447.5C 35.3333,412.833 35.3333,378.167 36,343.5C 36.6831,340.321 38.5164,338.321 41.5,337.5 Z M 51.5,353.5 C 51.5,359.167 51.5,364.833 51.5,370.5C 72.5,370.5 93.5,370.5 114.5,370.5C 114.5,364.833 114.5,359.167 114.5,353.5C 93.5,353.5 72.5,353.5 51.5,353.5 Z M 130.5,353.5 C 130.5,359.167 130.5,364.833 130.5,370.5C 183.833,370.5 237.167,370.5 290.5,370.5C 290.5,364.833 290.5,359.167 290.5,353.5C 237.167,353.5 183.833,353.5 130.5,353.5 Z M 51.5,386.5 C 51.5,392.5 51.5,398.5 51.5,404.5C 72.5,404.5 93.5,404.5 114.5,404.5C 114.5,398.5 114.5,392.5 114.5,386.5C 93.5,386.5 72.5,386.5 51.5,386.5 Z M 130.5,386.5 C 130.5,392.5 130.5,398.5 130.5,404.5C 183.833,404.5 237.167,404.5 290.5,404.5C 290.5,398.5 290.5,392.5 290.5,386.5C 237.167,386.5 183.833,386.5 130.5,386.5 Z M 130.5,420.5 C 130.5,426.167 130.5,431.833 130.5,437.5C 183.833,437.5 237.167,437.5 290.5,437.5C 290.5,431.833 290.5,426.167 290.5,420.5C 237.167,420.5 183.833,420.5 130.5,420.5 Z"/></g>
</svg>
