<?xml version="1.0" encoding="UTF-8"?>
<!DOCTYPE svg PUBLIC "-//W3C//DTD SVG 1.1//EN" "http://www.w3.org/Graphics/SVG/1.1/DTD/svg11.dtd">
<svg xmlns="http://www.w3.org/2000/svg" version="1.1" width="512px" height="512px" style="shape-rendering:geometricPrecision; text-rendering:geometricPrecision; image-rendering:optimizeQuality; fill-rule:evenodd; clip-rule:evenodd" xmlns:xlink="http://www.w3.org/1999/xlink">
<g><path style="opacity:0.951" fill="#000000" d="M 156.5,16.5 C 173.396,15.5534 179.896,23.2201 176,39.5C 171.466,44.9042 165.633,47.4042 158.5,47C 153.065,48.7694 149.232,52.2694 147,57.5C 146.214,62.2196 145.214,66.8863 144,71.5C 138.033,78.7333 130.867,80.2333 122.5,76C 117.881,72.2599 115.881,67.4266 116.5,61.5C 119.262,37.0724 132.596,22.0724 156.5,16.5 Z"/></g>
<g><path style="opacity:0.949" fill="#000000" d="M 216.5,16.5 C 237.836,16.3334 259.169,16.5 280.5,17C 289.608,20.379 293.108,26.879 291,36.5C 289.073,41.4277 285.573,44.5944 280.5,46C 259.167,46.6667 237.833,46.6667 216.5,46C 205.98,41.8035 202.813,34.3035 207,23.5C 209.529,20.1151 212.696,17.7818 216.5,16.5 Z"/></g>
<g><path style="opacity:0.947" fill="#000000" d="M 330.5,16.5 C 351.836,16.3334 373.169,16.5 394.5,17C 405.22,21.8167 408.053,29.6501 403,40.5C 400.559,42.9686 397.726,44.802 394.5,46C 373.167,46.6667 351.833,46.6667 330.5,46C 323.331,43.8466 319.331,39.0133 318.5,31.5C 319.442,23.9036 323.442,18.9036 330.5,16.5 Z"/></g>
<g><path style="opacity:0.942" fill="#000000" d="M 443.5,16.5 C 471.466,16.5549 488.3,30.2216 494,57.5C 495.68,73.822 488.513,80.322 472.5,77C 468.698,74.9125 466.198,71.7459 465,67.5C 463.943,52.4485 455.777,44.9485 440.5,45C 431.802,38.6084 430.302,30.775 436,21.5C 438.426,19.5476 440.926,17.881 443.5,16.5 Z"/></g>
<g><path style="opacity:0.973" fill="#000000" d="M 127.5,105.5 C 135.326,104.663 141.16,107.663 145,114.5C 145.667,137.167 145.667,159.833 145,182.5C 142.565,188.932 137.899,192.265 131,192.5C 124.39,191.864 119.723,188.53 117,182.5C 116.333,160.167 116.333,137.833 117,115.5C 119.106,110.557 122.606,107.224 127.5,105.5 Z"/></g>
<g><path style="opacity:0.947" fill="#000000" d="M 475.5,105.5 C 484.754,104.203 490.921,107.87 494,116.5C 494.667,137.833 494.667,159.167 494,180.5C 491.847,187.669 487.013,191.669 479.5,192.5C 471.987,191.669 467.153,187.669 465,180.5C 464.333,159.167 464.333,137.833 465,116.5C 466.684,110.984 470.184,107.318 475.5,105.5 Z"/></g>
<g><path style="opacity:0.987" fill="#000000" d="M 57.5,130.5 C 67.8333,130.5 78.1667,130.5 88.5,130.5C 88.3333,206.167 88.5,281.834 89,357.5C 95.8333,393.667 117.333,415.167 153.5,422C 229.166,422.5 304.833,422.667 380.5,422.5C 380.666,432.839 380.5,443.172 380,453.5C 377.042,466.459 369.209,474.959 356.5,479C 256.167,479.667 155.833,479.667 55.5,479C 43,475.833 35.1667,468 32,455.5C 31.3333,355.167 31.3333,254.833 32,154.5C 36.2173,141.778 44.7173,133.778 57.5,130.5 Z"/></g>
<g><path style="opacity:0.99" fill="#000000" d="M 173.5,130.5 C 235.834,130.333 298.168,130.5 360.5,131C 371,133.5 377.5,140 380,150.5C 380.5,212.499 380.667,274.499 380.5,336.5C 321.166,336.667 261.832,336.5 202.5,336C 184.509,331.006 175.009,319.173 174,300.5C 173.5,243.834 173.333,187.168 173.5,130.5 Z"/></g>
<g><path style="opacity:0.973" fill="#000000" d="M 126.5,219.5 C 134.999,218.039 141.166,221.039 145,228.5C 145.667,251.167 145.667,273.833 145,296.5C 142.465,302.77 137.798,305.77 131,305.5C 124.202,305.77 119.535,302.77 117,296.5C 116.333,274.167 116.333,251.833 117,229.5C 118.755,224.73 121.921,221.397 126.5,219.5 Z"/></g>
<g><path style="opacity:0.949" fill="#000000" d="M 474.5,219.5 C 484.115,217.886 490.615,221.552 494,230.5C 494.667,251.833 494.667,273.167 494,294.5C 489.803,305.02 482.303,308.187 471.5,304C 468.131,301.635 465.964,298.468 465,294.5C 464.333,273.167 464.333,251.833 465,230.5C 466.599,225.406 469.766,221.739 474.5,219.5 Z"/></g>
<g><path style="opacity:0.948" fill="#000000" d="M 125.5,333.5 C 134.437,331.555 140.937,334.555 145,342.5C 145.503,357.67 153.337,365.503 168.5,366C 176.61,370.064 179.443,376.564 177,385.5C 175.5,389.667 172.667,392.5 168.5,394C 137.71,395.208 120.376,380.542 116.5,350C 115.751,342.324 118.751,336.824 125.5,333.5 Z"/></g>
<g><path style="opacity:0.951" fill="#000000" d="M 474.5,333.5 C 484.352,331.487 490.852,335.154 494,344.5C 494.729,365.878 485.563,381.378 466.5,391C 457.217,395.047 447.883,395.38 438.5,392C 430.301,383.37 430.634,375.037 439.5,367C 446.219,366.073 452.552,364.073 458.5,361C 460.956,358.592 462.789,355.759 464,352.5C 463.4,343.684 466.9,337.351 474.5,333.5 Z"/></g>
<g><path style="opacity:0.974" fill="#000000" d="M 214.5,365.5 C 237.169,365.333 259.836,365.5 282.5,366C 291.122,370.86 293.622,378.026 290,387.5C 287.713,390.462 284.88,392.629 281.5,394C 259.167,394.667 236.833,394.667 214.5,394C 208.23,391.465 205.23,386.798 205.5,380C 205.353,373.113 208.353,368.28 214.5,365.5 Z"/></g>
<g><path style="opacity:0.973" fill="#000000" d="M 328.5,365.5 C 351.169,365.333 373.836,365.5 396.5,366C 405.704,371.441 407.87,378.941 403,388.5C 401.062,391.106 398.562,392.939 395.5,394C 373.167,394.667 350.833,394.667 328.5,394C 319.135,388.878 316.635,381.378 321,371.5C 323.114,368.879 325.614,366.879 328.5,365.5 Z"/></g>
</svg>
