<?xml version="1.0" encoding="UTF-8"?>
<!DOCTYPE svg PUBLIC "-//W3C//DTD SVG 1.1//EN" "http://www.w3.org/Graphics/SVG/1.1/DTD/svg11.dtd">
<svg xmlns="http://www.w3.org/2000/svg" version="1.1" width="512px" height="512px" style="shape-rendering:geometricPrecision; text-rendering:geometricPrecision; image-rendering:optimizeQuality; fill-rule:evenodd; clip-rule:evenodd" xmlns:xlink="http://www.w3.org/1999/xlink">
<g><path style="opacity:0.965" fill="#000000" d="M 74.5,-0.5 C 83.5,-0.5 92.5,-0.5 101.5,-0.5C 143.5,9.00178 168.333,35.0018 176,77.5C 178.188,126.618 156.021,158.785 109.5,174C 61.1385,182.237 26.3051,164.404 5,120.5C 2.98534,114.089 1.15201,107.756 -0.5,101.5C -0.5,92.5 -0.5,83.5 -0.5,74.5C 8.16667,33.1667 33.1667,8.16667 74.5,-0.5 Z M 97.5,32.5 C 102.768,34.4229 108.101,36.2562 113.5,38C 101.808,72.0761 90.3079,106.243 79,140.5C 78.6121,141.428 77.9454,142.095 77,142.5C 71.9773,141.05 67.144,139.216 62.5,137C 74.4653,102.271 86.132,67.4374 97.5,32.5 Z M 45.5,56.5 C 50.085,59.4136 54.085,63.0802 57.5,67.5C 50.9701,74.1948 44.6368,81.0282 38.5,88C 44.4554,94.9572 50.7888,101.624 57.5,108C 53.6667,111.833 49.8333,115.667 46,119.5C 35.5,109 25,98.5 14.5,88C 25.0355,77.6317 35.3688,67.1317 45.5,56.5 Z M 128.5,56.5 C 139.76,66.0912 150.427,76.4246 160.5,87.5C 150.181,98.3193 139.681,108.986 129,119.5C 125.167,115.667 121.333,111.833 117.5,108C 124.348,101.319 131.015,94.4856 137.5,87.5C 131.167,80.8333 124.833,74.1667 118.5,67.5C 121.855,63.8133 125.189,60.1466 128.5,56.5 Z"/></g>
<g><path style="opacity:0.979" fill="#000000" d="M 414.5,511.5 C 308.5,511.5 202.5,511.5 96.5,511.5C 96.5,405.167 96.5,298.833 96.5,192.5C 132.392,188.732 159.725,171.566 178.5,141C 201.498,140.5 224.498,140.333 247.5,140.5C 247.825,156.744 247.491,172.911 246.5,189C 225.833,199.333 205.167,209.667 184.5,220C 161.169,220.5 137.836,220.667 114.5,220.5C 114.5,302.5 114.5,384.5 114.5,466.5C 132.503,466.333 150.503,466.5 168.5,467C 173.559,481.394 183.559,490.061 198.5,493C 238.205,493.97 277.872,493.637 317.5,492C 337.188,484.457 345.354,470.29 342,449.5C 337.833,437.333 329.667,429.167 317.5,425C 299.547,423.569 281.547,423.069 263.5,423.5C 263.5,411.5 263.5,399.5 263.5,387.5C 281.167,387.5 298.833,387.5 316.5,387.5C 316.5,378.5 316.5,369.5 316.5,360.5C 337.167,360.5 357.833,360.5 378.5,360.5C 378.333,345.496 378.5,330.496 379,315.5C 395.729,306.648 400.062,293.648 392,276.5C 388.555,272.217 384.388,268.883 379.5,266.5C 378.501,251.181 378.167,235.848 378.5,220.5C 361.163,220.667 343.83,220.5 326.5,220C 305.833,209.667 285.167,199.333 264.5,189C 263.509,172.911 263.175,156.744 263.5,140.5C 285.503,140.667 307.503,140.5 329.5,140C 349.065,136.438 359.399,124.772 360.5,105C 359.045,86.2076 349.045,74.8742 330.5,71C 284.168,70.5 237.835,70.3333 191.5,70.5C 190.323,64.1274 188.99,57.7941 187.5,51.5C 263.167,51.5 338.833,51.5 414.5,51.5C 414.5,204.833 414.5,358.167 414.5,511.5 Z"/></g>
<g><path style="opacity:0.973" fill="#000000" d="M 193.5,87.5 C 239.501,87.3333 285.501,87.5 331.5,88C 339.802,90.8121 344.136,96.6454 344.5,105.5C 344.069,114.761 339.402,120.594 330.5,123C 282.834,123.5 235.168,123.667 187.5,123.5C 190.917,111.747 192.917,99.7471 193.5,87.5 Z"/></g>
<g><path style="opacity:0.937" fill="#000000" d="M 511.5,242.5 C 511.5,251.167 511.5,259.833 511.5,268.5C 507.783,270.109 504.283,272.109 501,274.5C 498.667,282.832 495.501,290.832 491.5,298.5C 493.088,302.408 493.922,306.408 494,310.5C 488.333,316.167 482.667,321.833 477,327.5C 473.004,325.498 468.838,324.332 464.5,324C 457.214,328.141 449.547,331.475 441.5,334C 439.706,337.088 438.039,340.254 436.5,343.5C 434.955,344.452 433.288,344.785 431.5,344.5C 431.334,335.161 431.5,325.827 432,316.5C 458.847,310.918 475.847,294.918 483,268.5C 487.532,235.389 474.698,211.889 444.5,198C 440.322,196.748 436.156,195.582 432,194.5C 431.5,185.173 431.334,175.839 431.5,166.5C 433.288,166.215 434.955,166.548 436.5,167.5C 438.039,170.746 439.706,173.912 441.5,177C 449.547,179.525 457.214,182.859 464.5,187C 468.838,186.668 473.004,185.502 477,183.5C 482.667,189.167 488.333,194.833 494,200.5C 493.922,204.592 493.088,208.592 491.5,212.5C 495.501,220.168 498.667,228.168 501,236.5C 504.283,238.891 507.783,240.891 511.5,242.5 Z"/></g>
<g><path style="opacity:0.958" fill="#000000" d="M 253.5,203.5 C 271.636,210.901 289.303,219.401 306.5,229C 290.323,237.589 273.989,245.922 257.5,254C 256.167,254.667 254.833,254.667 253.5,254C 237.011,245.922 220.677,237.589 204.5,229C 220.895,220.471 237.228,211.971 253.5,203.5 Z"/></g>
<g><path style="opacity:0.95" fill="#000000" d="M 431.5,211.5 C 459.82,220.118 471.32,239.118 466,268.5C 460.129,284.537 448.962,294.87 432.5,299.5C 431.5,270.174 431.167,240.841 431.5,211.5 Z"/></g>
<g><path style="opacity:0.979" fill="#000000" d="M 131.5,237.5 C 149.17,237.333 166.836,237.5 184.5,238C 205.167,248.333 225.833,258.667 246.5,269C 247.491,285.089 247.825,301.256 247.5,317.5C 229.833,317.5 212.167,317.5 194.5,317.5C 194.5,340.833 194.5,364.167 194.5,387.5C 212.167,387.5 229.833,387.5 247.5,387.5C 247.5,399.5 247.5,411.5 247.5,423.5C 229.453,423.069 211.453,423.569 193.5,425C 181.167,429.333 172.833,437.667 168.5,450C 156.171,450.5 143.838,450.667 131.5,450.5C 131.5,379.5 131.5,308.5 131.5,237.5 Z"/></g>
<g><path style="opacity:0.972" fill="#000000" d="M 326.5,237.5 C 338.167,237.5 349.833,237.5 361.5,237.5C 361.666,247.172 361.5,256.839 361,266.5C 344.47,275.615 340.47,288.615 349,305.5C 352.233,309.914 356.4,312.914 361.5,314.5C 361.5,324.5 361.5,334.5 361.5,344.5C 346.5,344.5 331.5,344.5 316.5,344.5C 316.5,335.5 316.5,326.5 316.5,317.5C 298.833,317.5 281.167,317.5 263.5,317.5C 263.333,301.497 263.5,285.497 264,269.5C 284.973,258.931 305.806,248.265 326.5,237.5 Z"/></g>
<g><path style="opacity:0.878" fill="#000000" d="M 367.5,281.5 C 377.87,281.702 381.37,286.702 378,296.5C 369.45,302.594 363.617,300.594 360.5,290.5C 361.201,286.039 363.535,283.039 367.5,281.5 Z"/></g>
<g><path style="opacity:0.962" fill="#000000" d="M 210.5,334.5 C 240.5,334.5 270.5,334.5 300.5,334.5C 300.5,346.5 300.5,358.5 300.5,370.5C 270.5,370.5 240.5,370.5 210.5,370.5C 210.5,358.5 210.5,346.5 210.5,334.5 Z"/></g>
<g><path style="opacity:0.97" fill="#000000" d="M 197.5,440.5 C 236.168,440.333 274.835,440.5 313.5,441C 326.035,446.594 329.535,455.761 324,468.5C 321.313,472.194 317.813,474.694 313.5,476C 274.833,476.667 236.167,476.667 197.5,476C 184.965,470.406 181.465,461.239 187,448.5C 189.855,444.789 193.355,442.123 197.5,440.5 Z"/></g>
</svg>
