<?xml version="1.0" encoding="UTF-8"?>
<!DOCTYPE svg PUBLIC "-//W3C//DTD SVG 1.1//EN" "http://www.w3.org/Graphics/SVG/1.1/DTD/svg11.dtd">
<svg xmlns="http://www.w3.org/2000/svg" version="1.1" width="96px" height="96px" style="shape-rendering:geometricPrecision; text-rendering:geometricPrecision; image-rendering:optimizeQuality; fill-rule:evenodd; clip-rule:evenodd" xmlns:xlink="http://www.w3.org/1999/xlink">
<g><path style="opacity:0.989" fill="#e7e9ec" d="M 45.5,16.5 C 46.8734,16.3433 48.2068,16.51 49.5,17C 59.7439,26.7407 69.4106,36.9074 78.5,47.5C 69.4106,58.0926 59.7439,68.2593 49.5,78C 44.5036,78.6643 42.6703,76.4977 44,71.5C 50.5,65 57,58.5 63.5,52C 48.1667,51.6667 32.8333,51.3333 17.5,51C 14.8333,48.6667 14.8333,46.3333 17.5,44C 32.8333,43.6667 48.1667,43.3333 63.5,43C 56.6975,37.1987 50.1975,31.0321 44,24.5C 43.1093,21.5024 43.6093,18.8357 45.5,16.5 Z"/></g>
</svg>
