<?xml version="1.0" encoding="UTF-8"?>
<!DOCTYPE svg PUBLIC "-//W3C//DTD SVG 1.1//EN" "http://www.w3.org/Graphics/SVG/1.1/DTD/svg11.dtd">
<svg xmlns="http://www.w3.org/2000/svg" version="1.1" width="512px" height="512px" style="shape-rendering:geometricPrecision; text-rendering:geometricPrecision; image-rendering:optimizeQuality; fill-rule:evenodd; clip-rule:evenodd" xmlns:xlink="http://www.w3.org/1999/xlink">
<g><path style="opacity:0.996" fill="#000000" d="M 201.5,31.5 C 237.502,31.3333 273.502,31.5 309.5,32C 314,33.8333 317.167,37 319,41.5C 319.667,61.5 319.667,81.5 319,101.5C 317.167,106 314,109.167 309.5,111C 296.838,111.5 284.171,111.667 271.5,111.5C 271.5,122.167 271.5,132.833 271.5,143.5C 305.502,143.333 339.502,143.5 373.5,144C 378,145.833 381.167,149 383,153.5C 383.5,166.162 383.667,178.829 383.5,191.5C 372.833,191.5 362.167,191.5 351.5,191.5C 351.5,186.167 351.5,180.833 351.5,175.5C 287.5,175.5 223.5,175.5 159.5,175.5C 159.5,180.833 159.5,186.167 159.5,191.5C 148.833,191.5 138.167,191.5 127.5,191.5C 127.333,178.829 127.5,166.162 128,153.5C 129.833,149 133,145.833 137.5,144C 171.498,143.5 205.498,143.333 239.5,143.5C 239.5,132.833 239.5,122.167 239.5,111.5C 226.829,111.667 214.162,111.5 201.5,111C 197,109.167 193.833,106 192,101.5C 191.333,81.5 191.333,61.5 192,41.5C 194.022,36.98 197.189,33.6467 201.5,31.5 Z"/></g>
<g><path style="opacity:0.995" fill="#000000" d="M 89.5,207.5 C 125.502,207.333 161.502,207.5 197.5,208C 202,209.833 205.167,213 207,217.5C 207.667,237.5 207.667,257.5 207,277.5C 205.167,282 202,285.167 197.5,287C 184.838,287.5 172.171,287.667 159.5,287.5C 159.5,298.167 159.5,308.833 159.5,319.5C 172.171,319.333 184.838,319.5 197.5,320C 202,321.833 205.167,325 207,329.5C 207.5,347.497 207.667,365.497 207.5,383.5C 196.833,383.5 186.167,383.5 175.5,383.5C 175.5,372.833 175.5,362.167 175.5,351.5C 148.833,351.5 122.167,351.5 95.5,351.5C 95.5,362.167 95.5,372.833 95.5,383.5C 84.8333,383.5 74.1667,383.5 63.5,383.5C 63.3334,365.497 63.5001,347.497 64,329.5C 65.8333,325 69,321.833 73.5,320C 91.4969,319.5 109.497,319.333 127.5,319.5C 127.5,308.833 127.5,298.167 127.5,287.5C 114.829,287.667 102.162,287.5 89.5,287C 85,285.167 81.8333,282 80,277.5C 79.3333,257.5 79.3333,237.5 80,217.5C 82.0223,212.98 85.189,209.647 89.5,207.5 Z"/></g>
<g><path style="opacity:0.995" fill="#000000" d="M 313.5,207.5 C 349.502,207.333 385.502,207.5 421.5,208C 426,209.833 429.167,213 431,217.5C 431.667,237.5 431.667,257.5 431,277.5C 429.167,282 426,285.167 421.5,287C 408.838,287.5 396.171,287.667 383.5,287.5C 383.5,298.167 383.5,308.833 383.5,319.5C 401.503,319.333 419.503,319.5 437.5,320C 442,321.833 445.167,325 447,329.5C 447.5,347.497 447.667,365.497 447.5,383.5C 436.833,383.5 426.167,383.5 415.5,383.5C 415.5,372.833 415.5,362.167 415.5,351.5C 388.833,351.5 362.167,351.5 335.5,351.5C 335.5,362.167 335.5,372.833 335.5,383.5C 324.833,383.5 314.167,383.5 303.5,383.5C 303.333,365.497 303.5,347.497 304,329.5C 305.833,325 309,321.833 313.5,320C 326.162,319.5 338.829,319.333 351.5,319.5C 351.5,308.833 351.5,298.167 351.5,287.5C 338.829,287.667 326.162,287.5 313.5,287C 309,285.167 305.833,282 304,277.5C 303.333,257.5 303.333,237.5 304,217.5C 306.022,212.98 309.189,209.647 313.5,207.5 Z"/></g>
<g><path style="opacity:0.993" fill="#000000" d="M 41.5,399.5 C 66.8355,399.333 92.1689,399.5 117.5,400C 122,401.833 125.167,405 127,409.5C 127.667,429.5 127.667,449.5 127,469.5C 125.167,474 122,477.167 117.5,479C 92.1667,479.667 66.8333,479.667 41.5,479C 37,477.167 33.8333,474 32,469.5C 31.3333,449.5 31.3333,429.5 32,409.5C 34.0223,404.98 37.189,401.647 41.5,399.5 Z"/></g>
<g><path style="opacity:0.993" fill="#000000" d="M 153.5,399.5 C 178.836,399.333 204.169,399.5 229.5,400C 234,401.833 237.167,405 239,409.5C 239.667,429.5 239.667,449.5 239,469.5C 237.167,474 234,477.167 229.5,479C 204.167,479.667 178.833,479.667 153.5,479C 149,477.167 145.833,474 144,469.5C 143.333,449.5 143.333,429.5 144,409.5C 146.022,404.98 149.189,401.647 153.5,399.5 Z"/></g>
<g><path style="opacity:0.993" fill="#000000" d="M 281.5,399.5 C 306.836,399.333 332.169,399.5 357.5,400C 362,401.833 365.167,405 367,409.5C 367.667,429.5 367.667,449.5 367,469.5C 365.167,474 362,477.167 357.5,479C 332.167,479.667 306.833,479.667 281.5,479C 277,477.167 273.833,474 272,469.5C 271.333,449.5 271.333,429.5 272,409.5C 274.022,404.98 277.189,401.647 281.5,399.5 Z"/></g>
<g><path style="opacity:0.993" fill="#000000" d="M 393.5,399.5 C 418.836,399.333 444.169,399.5 469.5,400C 474,401.833 477.167,405 479,409.5C 479.667,429.5 479.667,449.5 479,469.5C 477.167,474 474,477.167 469.5,479C 444.167,479.667 418.833,479.667 393.5,479C 389,477.167 385.833,474 384,469.5C 383.333,449.5 383.333,429.5 384,409.5C 386.022,404.98 389.189,401.647 393.5,399.5 Z"/></g>
</svg>
