<?xml version="1.0" encoding="UTF-8"?>
<!DOCTYPE svg PUBLIC "-//W3C//DTD SVG 1.1//EN" "http://www.w3.org/Graphics/SVG/1.1/DTD/svg11.dtd">
<svg xmlns="http://www.w3.org/2000/svg" version="1.1" width="512px" height="512px" style="shape-rendering:geometricPrecision; text-rendering:geometricPrecision; image-rendering:optimizeQuality; fill-rule:evenodd; clip-rule:evenodd" xmlns:xlink="http://www.w3.org/1999/xlink">
<g><path style="opacity:0.96" fill="#000000" d="M 117.5,16.5 C 118.873,16.3433 120.207,16.51 121.5,17C 151.338,34.0867 181.338,50.92 211.5,67.5C 212.521,68.0016 212.688,68.6683 212,69.5C 181.307,87.3473 150.307,104.681 119,121.5C 87.246,104.711 56.0793,87.0442 25.5,68.5C 56.2291,51.1393 86.8958,33.806 117.5,16.5 Z M 117.5,37.5 C 125.149,37.3144 128.315,40.981 127,48.5C 126.535,49.9308 125.701,51.0975 124.5,52C 109.339,60.0797 94.3389,68.413 79.5,77C 73.3706,78.4393 69.7039,76.1059 68.5,70C 68.8258,67.5155 69.8258,65.3488 71.5,63.5C 86.8958,54.806 102.229,46.1393 117.5,37.5 Z"/></g>
<g><path style="opacity:0.972" fill="#000000" d="M 220.5,82.5 C 221.831,121.335 221.831,160.335 220.5,199.5C 209.5,205.667 198.5,211.833 187.5,218C 224.965,240.635 262.299,263.468 299.5,286.5C 299.833,286 300.167,285.5 300.5,285C 299.264,280.889 298.264,276.723 297.5,272.5C 299.5,264.166 304.5,261.666 312.5,265C 313.701,265.903 314.535,267.069 315,268.5C 318.245,281.315 321.412,294.148 324.5,307C 324.031,310.804 322.031,313.471 318.5,315C 306.061,318.401 293.561,321.568 281,324.5C 273.115,322.724 270.448,318.057 273,310.5C 274.167,309.333 275.333,308.167 276.5,307C 281.543,305.822 286.543,304.489 291.5,303C 250.9,277.783 210.067,252.95 169,228.5C 155.026,235.653 141.359,243.32 128,251.5C 127.333,212.833 127.333,174.167 128,135.5C 158.978,117.933 189.811,100.266 220.5,82.5 Z"/></g>
<g><path style="opacity:0.975" fill="#000000" d="M 16.5,83.5 C 48.0153,100.175 79.182,117.508 110,135.5C 110.667,174.167 110.667,212.833 110,251.5C 79,233.833 48,216.167 17,198.5C 16.5,160.168 16.3333,121.835 16.5,83.5 Z M 39.5,119.5 C 44.9568,118.974 48.4568,121.307 50,126.5C 50.6667,145.833 50.6667,165.167 50,184.5C 47.2381,191.198 42.7381,192.698 36.5,189C 35.8742,188.25 35.3742,187.416 35,186.5C 34.3333,165.833 34.3333,145.167 35,124.5C 36.025,122.313 37.525,120.646 39.5,119.5 Z"/></g>
<g><path style="opacity:0.939" fill="#000000" d="M 456.5,229.5 C 460.463,229.089 464.13,229.922 467.5,232C 476.997,238.672 486.331,245.505 495.5,252.5C 484.135,261.189 472.468,269.523 460.5,277.5C 448.151,269.66 436.151,261.326 424.5,252.5C 435.208,244.776 445.875,237.11 456.5,229.5 Z"/></g>
<g><path style="opacity:0.934" fill="#000000" d="M 417.5,267.5 C 429.12,275.28 440.62,283.28 452,291.5C 452.833,303.847 452.666,316.18 451.5,328.5C 439.915,321.082 428.749,313.082 418,304.5C 417.5,292.171 417.333,279.838 417.5,267.5 Z"/></g>
<g><path style="opacity:0.934" fill="#000000" d="M 502.5,267.5 C 503.166,273.324 503.5,279.324 503.5,285.5C 503.629,292.269 503.129,298.936 502,305.5C 491.43,313.535 480.597,321.202 469.5,328.5C 468.167,315.833 468.167,303.167 469.5,290.5C 480.741,283.057 491.741,275.391 502.5,267.5 Z"/></g>
<g><path style="opacity:0.94" fill="#000000" d="M 372.5,314.5 C 375.794,314.259 378.794,315.092 381.5,317C 391.167,323.833 400.833,330.667 410.5,337.5C 399.095,346.399 387.262,354.732 375,362.5C 362.738,354.732 350.905,346.399 339.5,337.5C 350.392,329.565 361.392,321.898 372.5,314.5 Z"/></g>
<g><path style="opacity:0.936" fill="#000000" d="M 331.5,353.5 C 343.499,360.262 354.999,367.928 366,376.5C 366.833,388.847 366.666,401.18 365.5,413.5C 354.403,406.202 343.57,398.535 333,390.5C 331.561,378.242 331.061,365.909 331.5,353.5 Z"/></g>
<g><path style="opacity:0.937" fill="#000000" d="M 415.5,353.5 C 416.5,353.5 417.5,353.5 418.5,353.5C 418.667,364.505 418.5,375.505 418,386.5C 417.529,388.246 416.862,389.913 416,391.5C 405.587,398.956 395.087,406.29 384.5,413.5C 383.334,401.18 383.167,388.847 384,376.5C 394.479,368.69 404.979,361.023 415.5,353.5 Z"/></g>
<g><path style="opacity:0.94" fill="#000000" d="M 285.5,400.5 C 288.978,400.184 292.312,400.684 295.5,402C 305.5,409 315.5,416 325.5,423C 313.676,431.746 301.676,440.246 289.5,448.5C 277.361,440.194 265.361,431.694 253.5,423C 264.346,415.637 275.013,408.137 285.5,400.5 Z"/></g>
<g><path style="opacity:0.935" fill="#000000" d="M 246.5,438.5 C 258.201,445.774 269.701,453.441 281,461.5C 281.667,474.167 281.667,486.833 281,499.5C 270.333,492.167 259.667,484.833 249,477.5C 248.333,476.167 247.667,474.833 247,473.5C 246.5,461.838 246.333,450.171 246.5,438.5 Z"/></g>
<g><path style="opacity:0.933" fill="#000000" d="M 330.5,438.5 C 331.829,444.128 332.496,450.128 332.5,456.5C 332.629,463.269 332.129,469.936 331,476.5C 320.079,484.044 309.246,491.71 298.5,499.5C 297.167,486.833 297.167,474.167 298.5,461.5C 309.587,454.302 320.253,446.635 330.5,438.5 Z"/></g>
</svg>
