<?xml version="1.0" encoding="UTF-8"?>
<!DOCTYPE svg PUBLIC "-//W3C//DTD SVG 1.1//EN" "http://www.w3.org/Graphics/SVG/1.1/DTD/svg11.dtd">
<svg xmlns="http://www.w3.org/2000/svg" version="1.1" width="512px" height="512px" style="shape-rendering:geometricPrecision; text-rendering:geometricPrecision; image-rendering:optimizeQuality; fill-rule:evenodd; clip-rule:evenodd" xmlns:xlink="http://www.w3.org/1999/xlink">
<g><path style="opacity:0.991" fill="#000000" d="M 160.5,-0.5 C 223.833,-0.5 287.167,-0.5 350.5,-0.5C 367.15,4.651 377.984,15.651 383,32.5C 383.667,63.8333 383.667,95.1667 383,126.5C 378.167,143.333 367.333,154.167 350.5,159C 287.167,159.667 223.833,159.667 160.5,159C 143.667,154.167 132.833,143.333 128,126.5C 127.333,95.1667 127.333,63.8333 128,32.5C 133.016,15.651 143.85,4.651 160.5,-0.5 Z M 170.5,31.5 C 227.168,31.3333 283.834,31.5 340.5,32C 346.667,32.8333 350.167,36.3333 351,42.5C 351.667,67.1667 351.667,91.8333 351,116.5C 350.167,122.667 346.667,126.167 340.5,127C 283.833,127.667 227.167,127.667 170.5,127C 164.333,126.167 160.833,122.667 160,116.5C 159.333,91.8333 159.333,67.1667 160,42.5C 161.014,36.3221 164.514,32.6555 170.5,31.5 Z"/></g>
<g><path style="opacity:0.997" fill="#000000" d="M 239.5,180.5 C 250.167,180.5 260.833,180.5 271.5,180.5C 271.5,194.833 271.5,209.167 271.5,223.5C 330.834,223.333 390.168,223.5 449.5,224C 456,226.5 460.5,231 463,237.5C 463.5,254.163 463.667,270.83 463.5,287.5C 452.833,287.5 442.167,287.5 431.5,287.5C 431.5,276.833 431.5,266.167 431.5,255.5C 314.167,255.5 196.833,255.5 79.5,255.5C 79.5,266.167 79.5,276.833 79.5,287.5C 68.8333,287.5 58.1667,287.5 47.5,287.5C 47.3334,270.83 47.5001,254.163 48,237.5C 50.5,231 55,226.5 61.5,224C 120.832,223.5 180.166,223.333 239.5,223.5C 239.5,209.167 239.5,194.833 239.5,180.5 Z"/></g>
<g><path style="opacity:0.987" fill="#000000" d="M 95.5,511.5 C 74.1667,511.5 52.8333,511.5 31.5,511.5C 15.1667,506.5 4.5,495.833 -0.5,479.5C -0.5,436.833 -0.5,394.167 -0.5,351.5C 4.31811,335.183 14.9848,324.683 31.5,320C 52.8333,319.333 74.1667,319.333 95.5,320C 112,324.5 122.5,335 127,351.5C 127.667,394.167 127.667,436.833 127,479.5C 122.326,496.007 111.826,506.673 95.5,511.5 Z M 41.5,351.5 C 56.1705,351.333 70.8371,351.5 85.5,352C 89.4385,352.214 92.2718,354.047 94,357.5C 95.6415,394.787 95.9749,432.12 95,469.5C 94.7859,473.438 92.9526,476.272 89.5,478C 73.554,479.605 57.554,479.938 41.5,479C 37.5615,478.786 34.7282,476.953 33,473.5C 31.3585,436.213 31.0251,398.88 32,361.5C 32.679,355.657 35.8457,352.324 41.5,351.5 Z"/></g>
<g><path style="opacity:0.987" fill="#000000" d="M 287.5,511.5 C 266.167,511.5 244.833,511.5 223.5,511.5C 207.183,506.682 196.683,496.015 192,479.5C 191.333,436.833 191.333,394.167 192,351.5C 196.5,335 207,324.5 223.5,320C 244.833,319.333 266.167,319.333 287.5,320C 304,324.5 314.5,335 319,351.5C 319.667,394.167 319.667,436.833 319,479.5C 314.326,496.007 303.826,506.673 287.5,511.5 Z M 233.5,351.5 C 248.17,351.333 262.837,351.5 277.5,352C 281.438,352.214 284.272,354.047 286,357.5C 287.642,394.787 287.975,432.12 287,469.5C 286.786,473.438 284.953,476.272 281.5,478C 265.554,479.605 249.554,479.938 233.5,479C 229.562,478.786 226.728,476.953 225,473.5C 223.358,436.213 223.025,398.88 224,361.5C 224.679,355.657 227.846,352.324 233.5,351.5 Z"/></g>
<g><path style="opacity:0.987" fill="#000000" d="M 511.5,351.5 C 511.5,394.167 511.5,436.833 511.5,479.5C 506.509,495.825 495.842,506.491 479.5,511.5C 458.167,511.5 436.833,511.5 415.5,511.5C 399.183,506.682 388.683,496.015 384,479.5C 383.333,436.833 383.333,394.167 384,351.5C 388.5,335 399,324.5 415.5,320C 436.833,319.333 458.167,319.333 479.5,320C 496.015,324.683 506.682,335.183 511.5,351.5 Z M 425.5,351.5 C 440.17,351.333 454.837,351.5 469.5,352C 473.438,352.214 476.272,354.047 478,357.5C 479.642,394.787 479.975,432.12 479,469.5C 478.786,473.438 476.953,476.272 473.5,478C 457.554,479.605 441.554,479.938 425.5,479C 421.562,478.786 418.728,476.953 417,473.5C 415.358,436.213 415.025,398.88 416,361.5C 416.679,355.657 419.846,352.324 425.5,351.5 Z"/></g>
</svg>
