<?xml version="1.0" encoding="UTF-8"?>
<!DOCTYPE svg PUBLIC "-//W3C//DTD SVG 1.1//EN" "http://www.w3.org/Graphics/SVG/1.1/DTD/svg11.dtd">
<svg xmlns="http://www.w3.org/2000/svg" version="1.1" width="512px" height="512px" style="shape-rendering:geometricPrecision; text-rendering:geometricPrecision; image-rendering:optimizeQuality; fill-rule:evenodd; clip-rule:evenodd" xmlns:xlink="http://www.w3.org/1999/xlink">
<g><path style="opacity:0.94" fill="#000000" d="M 112.5,-0.5 C 116.833,-0.5 121.167,-0.5 125.5,-0.5C 159.942,19.2258 194.609,38.7258 229.5,58C 233.817,60.3151 236.65,63.8151 238,68.5C 238.667,113.5 238.667,158.5 238,203.5C 237.036,207.468 234.869,210.635 231.5,213C 222.339,217.746 213.339,222.746 204.5,228C 236.167,247.5 267.833,267 299.5,286.5C 299.833,286 300.167,285.5 300.5,285C 299.264,280.889 298.264,276.723 297.5,272.5C 299.5,264.166 304.5,261.666 312.5,265C 313.701,265.903 314.535,267.069 315,268.5C 318,280.5 321,292.5 324,304.5C 324.702,310.814 321.868,314.648 315.5,316C 303.27,319.476 290.937,322.143 278.5,324C 274.167,322.839 272.167,320.005 272.5,315.5C 272.249,311.497 273.916,308.664 277.5,307C 282.167,305.667 286.833,304.333 291.5,303C 256.333,281.249 221,259.749 185.5,238.5C 165.661,249.92 145.661,261.087 125.5,272C 123.302,272.373 121.135,272.873 119,273.5C 116.865,272.873 114.698,272.373 112.5,272C 77.1667,252.333 41.8333,232.667 6.5,213C 3.54644,210.559 1.21311,207.725 -0.5,204.5C -0.5,158.833 -0.5,113.167 -0.5,67.5C 1.59151,63.5724 4.59151,60.4057 8.5,58C 43.3909,38.7258 78.0576,19.2258 112.5,-0.5 Z M 117.5,17.5 C 149.046,33.6082 180.046,50.7748 210.5,69C 180.081,86.2933 149.581,103.46 119,120.5C 88.2473,103.207 57.414,86.0399 26.5,69C 57.2203,52.3123 87.5536,35.1456 117.5,17.5 Z M 17.5,84.5 C 47.6444,101.741 77.9778,118.741 108.5,135.5C 109.667,173.496 109.833,211.496 109,249.5C 79.0763,232.12 48.9096,215.12 18.5,198.5C 17.5001,160.506 17.1668,122.506 17.5,84.5 Z M 219.5,84.5 C 220.83,122.335 220.83,160.335 219.5,198.5C 189.005,215.247 158.672,232.247 128.5,249.5C 127.333,211.838 127.167,174.171 128,136.5C 158.806,119.519 189.306,102.186 219.5,84.5 Z"/></g>
<g><path style="opacity:0.916" fill="#000000" d="M 116.5,36.5 C 124.989,36.1538 128.822,40.1538 128,48.5C 126.878,50.6238 125.378,52.4571 123.5,54C 109.005,61.7465 94.6719,69.7465 80.5,78C 70.3333,79.8333 66.1667,75.6667 68,65.5C 69.1667,64.3333 70.3333,63.1667 71.5,62C 86.5625,53.4727 101.563,44.9727 116.5,36.5 Z"/></g>
<g><path style="opacity:0.931" fill="#000000" d="M 38.5,118.5 C 44.7313,117.361 48.898,119.695 51,125.5C 51.6667,145.5 51.6667,165.5 51,185.5C 46.2643,193.846 40.5976,194.513 34,187.5C 33.3333,166.167 33.3333,144.833 34,123.5C 35.025,121.313 36.525,119.646 38.5,118.5 Z"/></g>
<g><path style="opacity:0.942" fill="#000000" d="M 511.5,256.5 C 511.5,273.167 511.5,289.833 511.5,306.5C 510.121,309.386 508.121,311.886 505.5,314C 493.5,322.333 481.5,330.667 469.5,339C 462.65,342.546 455.983,342.213 449.5,338C 436.221,329.11 423.388,319.61 411,309.5C 410.027,307.608 409.36,305.608 409,303.5C 408.333,288.5 408.333,273.5 409,258.5C 410.119,253.761 412.619,249.928 416.5,247C 428.833,238.667 441.167,230.333 453.5,222C 460.214,220.14 466.547,221.14 472.5,225C 483.325,232.913 494.325,240.58 505.5,248C 507.902,250.671 509.902,253.505 511.5,256.5 Z M 459.5,239.5 C 468.79,245.153 477.79,251.319 486.5,258C 477.667,264.167 468.833,270.333 460,276.5C 451.551,270.033 443.051,263.7 434.5,257.5C 442.875,251.443 451.208,245.443 459.5,239.5 Z M 426.5,275.5 C 434.899,280.787 443.066,286.454 451,292.5C 451.667,300.5 451.667,308.5 451,316.5C 442.824,311.079 434.824,305.412 427,299.5C 426.5,291.507 426.334,283.507 426.5,275.5 Z M 492.5,275.5 C 493.821,283.676 493.821,292.009 492.5,300.5C 484.861,305.639 477.361,310.973 470,316.5C 469.168,308.147 469.335,299.813 470.5,291.5C 478.155,286.497 485.489,281.164 492.5,275.5 Z"/></g>
<g><path style="opacity:0.943" fill="#000000" d="M 369.5,306.5 C 375.602,305.733 381.269,306.899 386.5,310C 399.266,318.8 411.766,327.967 424,337.5C 424.862,339.087 425.529,340.754 426,342.5C 426.957,359.567 426.624,376.567 425,393.5C 423.542,395.96 421.709,398.127 419.5,400C 408.325,407.42 397.325,415.087 386.5,423C 378.833,427.667 371.167,427.667 363.5,423C 352.675,415.087 341.675,407.42 330.5,400C 327.457,397.407 325.29,394.24 324,390.5C 323.333,374.5 323.333,358.5 324,342.5C 324.471,340.754 325.138,339.087 326,337.5C 339.867,326.11 354.367,315.776 369.5,306.5 Z M 374.5,324.5 C 383.619,330.446 392.619,336.613 401.5,343C 392.667,349.167 383.833,355.333 375,361.5C 366.167,355.333 357.333,349.167 348.5,343C 357.347,336.97 366.014,330.804 374.5,324.5 Z M 341.5,361.5 C 349.708,366.196 357.542,371.529 365,377.5C 365.667,385.5 365.667,393.5 365,401.5C 357.333,396.167 349.667,390.833 342,385.5C 341.5,377.507 341.334,369.507 341.5,361.5 Z M 406.5,361.5 C 407.824,365.107 408.491,369.107 408.5,373.5C 408.333,377.5 408.167,381.5 408,385.5C 400.03,390.638 392.196,395.971 384.5,401.5C 383.335,393.521 383.168,385.521 384,377.5C 391.959,372.692 399.459,367.358 406.5,361.5 Z"/></g>
<g><path style="opacity:0.941" fill="#000000" d="M 295.5,511.5 C 291.5,511.5 287.5,511.5 283.5,511.5C 271.678,503.196 259.678,495.03 247.5,487C 241.871,483.365 238.705,478.199 238,471.5C 237.333,458.167 237.333,444.833 238,431.5C 238.544,425.913 241.044,421.413 245.5,418C 256.675,410.58 267.675,402.913 278.5,395C 285.833,390.333 293.167,390.333 300.5,395C 313.897,403.729 326.73,413.229 339,423.5C 339.973,425.392 340.64,427.392 341,429.5C 341.667,444.5 341.667,459.5 341,474.5C 340.275,476.949 339.275,479.283 338,481.5C 324.03,491.891 309.863,501.891 295.5,511.5 Z M 288.5,410.5 C 290.783,410.608 292.783,411.441 294.5,413C 301.664,418.005 308.664,423.172 315.5,428.5C 307.109,434.89 298.442,440.89 289.5,446.5C 280.558,440.89 271.891,434.89 263.5,428.5C 271.875,422.443 280.208,416.443 288.5,410.5 Z M 255.5,445.5 C 263.551,451.28 271.717,456.947 280,462.5C 280.832,470.521 280.665,478.521 279.5,486.5C 271.833,481.167 264.167,475.833 256.5,470.5C 255.502,462.193 255.169,453.86 255.5,445.5 Z M 321.5,446.5 C 322.824,450.107 323.491,454.107 323.5,458.5C 323.333,462.5 323.167,466.5 323,470.5C 314.824,475.921 306.824,481.588 299,487.5C 298.168,479.147 298.335,470.813 299.5,462.5C 307.155,457.497 314.489,452.164 321.5,446.5 Z"/></g>
</svg>
