<?xml version="1.0" encoding="UTF-8"?>
<!DOCTYPE svg PUBLIC "-//W3C//DTD SVG 1.1//EN" "http://www.w3.org/Graphics/SVG/1.1/DTD/svg11.dtd">
<svg xmlns="http://www.w3.org/2000/svg" version="1.1" width="512px" height="512px" style="shape-rendering:geometricPrecision; text-rendering:geometricPrecision; image-rendering:optimizeQuality; fill-rule:evenodd; clip-rule:evenodd" xmlns:xlink="http://www.w3.org/1999/xlink">
<g><path style="opacity:0.96" fill="#000000" d="M 30.5,-0.5 C 36.5,-0.5 42.5,-0.5 48.5,-0.5C 68.4199,5.31566 78.7532,18.649 79.5,39.5C 79.4224,46.7794 78.2557,53.7794 76,60.5C 97.8333,82.3333 119.667,104.167 141.5,126C 145.458,125.245 149.458,124.245 153.5,123C 172.821,119.583 187.654,126.083 198,142.5C 208.141,166.468 202.307,185.302 180.5,199C 177.904,200.136 175.237,200.969 172.5,201.5C 172.5,216.5 172.5,231.5 172.5,246.5C 187.833,250.5 197.5,260.167 201.5,275.5C 218.167,275.5 234.833,275.5 251.5,275.5C 251.333,237.832 251.5,200.165 252,162.5C 256.167,146.333 266.333,136.167 282.5,132C 303.828,128.58 319.328,136.414 329,155.5C 329.822,157.788 330.489,160.122 331,162.5C 331.167,183.508 331.667,204.508 332.5,225.5C 362.715,215.274 382.715,225.274 392.5,255.5C 422.715,245.274 442.715,255.274 452.5,285.5C 481.218,275.365 500.884,284.365 511.5,312.5C 511.5,353.167 511.5,393.833 511.5,434.5C 504.205,471.737 482.538,496.404 446.5,508.5C 436.477,505.941 433.644,499.941 438,490.5C 456.1,484.297 470.434,473.297 481,457.5C 487.449,446.373 490.782,434.373 491,421.5C 491.96,386.133 491.626,350.8 490,315.5C 485.221,304.86 477.054,300.693 465.5,303C 459.333,305.167 455.167,309.333 453,315.5C 452.441,319.186 451.774,322.853 451,326.5C 447.345,331.275 442.512,332.775 436.5,331C 434.667,329.833 433.167,328.333 432,326.5C 431.667,314.833 431.333,303.167 431,291.5C 428.863,276.674 420.363,270.507 405.5,273C 399.333,275.167 395.167,279.333 393,285.5C 391.782,299.126 391.115,312.793 391,326.5C 387.345,331.275 382.512,332.775 376.5,331C 374.667,329.833 373.167,328.333 372,326.5C 371.938,302.797 371.271,279.131 370,255.5C 363.178,241.958 353.011,238.791 339.5,246C 336.469,248.559 334.302,251.726 333,255.5C 331.729,279.131 331.062,302.797 331,326.5C 326.389,331.916 320.889,332.916 314.5,329.5C 313.667,328.5 312.833,327.5 312,326.5C 311.974,272.802 311.307,219.135 310,165.5C 303.178,151.958 293.011,148.791 279.5,156C 274.992,160.184 272.492,165.351 272,171.5C 271.667,239.5 271.333,307.5 271,375.5C 267.22,381.39 262.053,382.89 255.5,380C 251.5,375.333 247.5,370.667 243.5,366C 229.989,358.791 219.822,361.958 213,375.5C 211.699,381.922 212.699,387.922 216,393.5C 240.455,424.29 265.288,454.79 290.5,485C 295.851,488.84 301.851,490.84 308.5,491C 326.167,491.333 343.833,491.667 361.5,492C 366.275,495.655 367.775,500.488 366,506.5C 364.634,508.362 363.134,510.028 361.5,511.5C 340.5,511.5 319.5,511.5 298.5,511.5C 286.29,508.635 276.123,502.302 268,492.5C 245.713,463.878 223.047,435.545 200,407.5C 187.801,390.056 187.801,372.723 200,355.5C 214.467,340.749 231.301,337.416 250.5,345.5C 251.499,328.847 251.833,312.18 251.5,295.5C 234.833,295.5 218.167,295.5 201.5,295.5C 197.924,309.579 189.257,319.079 175.5,324C 149.008,329.791 131.508,319.957 123,294.5C 119.583,275.179 126.083,260.346 142.5,250C 145.605,248.132 148.938,246.965 152.5,246.5C 152.5,231.5 152.5,216.5 152.5,201.5C 133.129,195.775 123.129,182.775 122.5,162.5C 122.578,155.221 123.744,148.221 126,141.5C 104.167,119.667 82.3333,97.8333 60.5,76C 53.7794,78.2557 46.7794,79.4224 39.5,79.5C 18.649,78.7532 5.31566,68.4199 -0.5,48.5C -0.5,42.5 -0.5,36.5 -0.5,30.5C 4.16667,14.5 14.5,4.16667 30.5,-0.5 Z M 33.5,20.5 C 51.6483,19.1477 59.815,27.481 58,45.5C 51.1778,59.0423 41.0111,62.209 27.5,55C 19.6019,46.7455 18.4352,37.5788 24,27.5C 26.7901,24.535 29.9567,22.2016 33.5,20.5 Z M 156.5,143.5 C 174.648,142.148 182.815,150.481 181,168.5C 174.178,182.042 164.011,185.209 150.5,178C 142.602,169.745 141.435,160.579 147,150.5C 149.79,147.535 152.957,145.202 156.5,143.5 Z M 156.5,266.5 C 174.648,265.148 182.815,273.481 181,291.5C 174.178,305.042 164.011,308.209 150.5,301C 142.602,292.745 141.435,283.579 147,273.5C 149.79,270.535 152.957,268.202 156.5,266.5 Z"/></g>
<g><path style="opacity:0.944" fill="#000000" d="M 153.5,-0.5 C 159.5,-0.5 165.5,-0.5 171.5,-0.5C 194.809,7.41989 204.976,23.7532 202,48.5C 193.492,73.9574 175.992,83.7907 149.5,78C 128.388,69.1794 119.555,53.3461 123,30.5C 127.349,14.3186 137.516,3.98523 153.5,-0.5 Z M 156.5,20.5 C 174.648,19.1477 182.815,27.481 181,45.5C 174.178,59.0423 164.011,62.209 150.5,55C 142.602,46.7455 141.435,37.5788 147,27.5C 149.79,24.535 152.957,22.2016 156.5,20.5 Z"/></g>
<g><path style="opacity:0.944" fill="#000000" d="M 276.5,-0.5 C 282.5,-0.5 288.5,-0.5 294.5,-0.5C 317.809,7.41989 327.976,23.7532 325,48.5C 316.492,73.9574 298.992,83.7907 272.5,78C 251.388,69.1794 242.555,53.3461 246,30.5C 250.349,14.3186 260.516,3.98523 276.5,-0.5 Z M 279.5,20.5 C 297.648,19.1477 305.815,27.481 304,45.5C 297.178,59.0423 287.011,62.209 273.5,55C 265.602,46.7455 264.435,37.5788 270,27.5C 272.79,24.535 275.957,22.2016 279.5,20.5 Z"/></g>
<g><path style="opacity:0.944" fill="#000000" d="M -0.5,171.5 C -0.5,165.5 -0.5,159.5 -0.5,153.5C 7.41989,130.191 23.7532,120.024 48.5,123C 73.9574,131.508 83.7907,149.008 78,175.5C 69.1794,196.612 53.3461,205.445 30.5,202C 14.3186,197.651 3.98523,187.484 -0.5,171.5 Z M 33.5,143.5 C 51.6483,142.148 59.815,150.481 58,168.5C 51.1778,182.042 41.0111,185.209 27.5,178C 19.6019,169.745 18.4352,160.579 24,150.5C 26.7901,147.535 29.9567,145.202 33.5,143.5 Z"/></g>
<g><path style="opacity:0.944" fill="#000000" d="M -0.5,294.5 C -0.5,288.5 -0.5,282.5 -0.5,276.5C 7.41989,253.191 23.7532,243.024 48.5,246C 73.9574,254.508 83.7907,272.008 78,298.5C 69.1794,319.612 53.3461,328.445 30.5,325C 14.3186,320.651 3.98523,310.484 -0.5,294.5 Z M 33.5,266.5 C 51.6483,265.148 59.815,273.481 58,291.5C 51.1778,305.042 41.0111,308.209 27.5,301C 19.6019,292.745 18.4352,283.579 24,273.5C 26.7901,270.535 29.9567,268.202 33.5,266.5 Z"/></g>
<g><path style="opacity:0.908" fill="#000000" d="M 406.5,511.5 C 403.167,511.5 399.833,511.5 396.5,511.5C 391.754,507.658 390.254,502.658 392,496.5C 395.655,491.725 400.488,490.225 406.5,492C 411.275,495.655 412.775,500.488 411,506.5C 409.634,508.362 408.134,510.028 406.5,511.5 Z"/></g>
</svg>
