<?xml version="1.0" encoding="UTF-8"?>
<!DOCTYPE svg PUBLIC "-//W3C//DTD SVG 1.1//EN" "http://www.w3.org/Graphics/SVG/1.1/DTD/svg11.dtd">
<svg xmlns="http://www.w3.org/2000/svg" version="1.1" width="512px" height="512px" style="shape-rendering:geometricPrecision; text-rendering:geometricPrecision; image-rendering:optimizeQuality; fill-rule:evenodd; clip-rule:evenodd" xmlns:xlink="http://www.w3.org/1999/xlink">
<g><path style="opacity:0.98" fill="#000000" d="M 92.5,31.5 C 108.158,28.9896 120.658,33.9896 130,46.5C 131.868,49.6051 133.035,52.9385 133.5,56.5C 145.851,56.8324 158.185,56.499 170.5,55.5C 177.472,37.0578 190.805,29.2245 210.5,32C 230.662,37.4741 239.495,50.6408 237,71.5C 233.51,84.9902 225.176,93.9902 212,98.5C 211.167,110.514 211.334,122.514 212.5,134.5C 227.997,140.006 236.331,151.006 237.5,167.5C 236.89,173.712 235.724,179.712 234,185.5C 251.833,203.333 269.667,221.167 287.5,239C 291.741,238.041 296.074,237.041 300.5,236C 316.849,235.093 327.016,242.593 331,258.5C 331.5,270.495 331.667,282.495 331.5,294.5C 349.871,289.852 362.871,296.186 370.5,313.5C 388.444,308.888 400.611,315.221 407,332.5C 427.542,327.052 439.876,334.719 444,355.5C 444.667,378.833 444.667,402.167 444,425.5C 440.866,454.633 425.033,472.466 396.5,479C 365.167,479.667 333.833,479.667 302.5,479C 294.379,476.855 287.879,472.355 283,465.5C 269.05,446.548 254.716,427.882 240,409.5C 232.14,394.533 234.64,381.7 247.5,371C 256.592,365.703 265.926,365.203 275.5,369.5C 276.357,330.797 276.857,292.13 277,253.5C 258.5,235 240,216.5 221.5,198C 217.412,198.36 213.412,199.36 209.5,201C 188.495,203.082 175.328,193.915 170,173.5C 167.543,154.082 175.543,141.082 194,134.5C 194.5,122.171 194.667,109.838 194.5,97.5C 181.514,94.5139 173.514,86.5139 170.5,73.5C 158.495,73.3335 146.495,73.5001 134.5,74C 123.861,97.9841 106.527,104.651 82.5,94C 67.692,82.6066 63.5253,68.1066 70,50.5C 74.9023,40.9824 82.4023,34.649 92.5,31.5 Z"/></g>
<g><path style="opacity:0.93" fill="#000000" d="M 297.5,31.5 C 316.951,28.9691 330.451,36.6358 338,54.5C 342.588,75.8292 334.755,90.3292 314.5,98C 294.246,101.457 280.413,93.624 273,74.5C 269.293,53.2332 277.46,38.8998 297.5,31.5 Z M 300.5,48.5 C 315.773,47.2739 322.94,54.2739 322,69.5C 316.391,81.8134 307.558,84.98 295.5,79C 285.252,66.8333 286.919,56.6666 300.5,48.5 Z"/></g>
<g><path style="opacity:0.929" fill="#000000" d="M 94.5,133.5 C 114.474,131.995 127.641,140.661 134,159.5C 136.872,180.937 128.039,194.77 107.5,201C 87.5453,202.943 74.3787,194.443 68,175.5C 65.3362,154.038 74.1695,140.038 94.5,133.5 Z M 96.5,150.5 C 113.673,150.506 120.173,158.839 116,175.5C 107.726,186.158 98.393,187.158 88,178.5C 81.303,166.099 84.1363,156.766 96.5,150.5 Z"/></g>
<g><path style="opacity:0.928" fill="#000000" d="M 298.5,133.5 C 326.105,132.605 339.605,145.939 339,173.5C 333.548,193.603 320.381,202.77 299.5,201C 284.087,197.019 274.921,187.186 272,171.5C 271.319,152.04 280.152,139.373 298.5,133.5 Z M 301.5,150.5 C 311.798,149.398 318.631,153.731 322,163.5C 323.583,173.834 319.416,180.667 309.5,184C 295.864,184.698 289.031,178.198 289,164.5C 290.954,157.72 295.12,153.053 301.5,150.5 Z"/></g>
<g><path style="opacity:0.931" fill="#000000" d="M 95.5,235.5 C 123.161,235.992 135.994,249.992 134,277.5C 127.663,297.257 114.163,305.757 93.5,303C 73.7483,296.676 65.2483,283.176 68,262.5C 71.7562,247.91 80.9229,238.91 95.5,235.5 Z M 97.5,252.5 C 112.837,252.671 119.337,260.337 117,275.5C 111.998,285.504 104.165,288.67 93.5,285C 84.2861,278.772 82.1194,270.606 87,260.5C 89.8308,256.821 93.3308,254.154 97.5,252.5 Z"/></g>
<g><path style="opacity:0.928" fill="#000000" d="M 198.5,235.5 C 219.658,234.826 232.492,244.826 237,265.5C 236.482,292.684 222.648,305.184 195.5,303C 176.557,296.621 168.057,283.455 170,263.5C 173.465,247.867 182.965,238.534 198.5,235.5 Z M 199.5,252.5 C 213.163,252.331 219.996,258.998 220,272.5C 214.849,286.491 205.682,289.991 192.5,283C 182.809,269.986 185.142,259.82 199.5,252.5 Z"/></g>
</svg>
