<?xml version="1.0" encoding="UTF-8"?>
<!DOCTYPE svg PUBLIC "-//W3C//DTD SVG 1.1//EN" "http://www.w3.org/Graphics/SVG/1.1/DTD/svg11.dtd">
<svg xmlns="http://www.w3.org/2000/svg" version="1.1" width="512px" height="512px" style="shape-rendering:geometricPrecision; text-rendering:geometricPrecision; image-rendering:optimizeQuality; fill-rule:evenodd; clip-rule:evenodd" xmlns:xlink="http://www.w3.org/1999/xlink">
<g><path style="opacity:0.939" fill="#000000" d="M 58.5,6.5 C 90.1684,6.33335 121.835,6.50002 153.5,7C 158.833,12 158.833,17 153.5,22C 152.5,22.3333 151.5,22.6667 150.5,23C 123.835,23.5 97.1687,23.6666 70.5,23.5C 70.6666,48.1689 70.5,72.8356 70,97.5C 65.3995,103.63 60.3995,103.964 55,98.5C 53.3582,69.895 53.0249,41.2283 54,12.5C 54.5985,9.74583 56.0985,7.74583 58.5,6.5 Z"/></g>
<g><path style="opacity:0.939" fill="#000000" d="M 357.5,6.5 C 389.168,6.33335 420.835,6.50002 452.5,7C 453.931,7.46524 455.097,8.29857 456,9.5C 457.642,38.105 457.975,66.7717 457,95.5C 455.839,99.8256 453.005,102.159 448.5,102.5C 445.183,101.934 442.683,100.267 441,97.5C 440.5,72.8356 440.333,48.1689 440.5,23.5C 413.831,23.6666 387.165,23.5 360.5,23C 354.839,21.1799 352.672,17.3465 354,11.5C 354.997,9.67694 356.164,8.01027 357.5,6.5 Z"/></g>
<g><path style="opacity:0.93" fill="#000000" d="M 129.5,59.5 C 147.24,57.6075 159.074,64.9408 165,81.5C 168.568,100.2 161.402,112.7 143.5,119C 117.337,121.502 104.837,109.669 106,83.5C 109.349,70.9853 117.182,62.9853 129.5,59.5 Z M 132.5,76.5 C 144.651,76.4845 149.818,82.4845 148,94.5C 143,102.878 136.167,104.712 127.5,100C 119.783,90.1286 121.45,82.2953 132.5,76.5 Z"/></g>
<g><path style="opacity:0.929" fill="#000000" d="M 244.5,59.5 C 266.468,57.8139 278.801,67.8139 281.5,89.5C 280.844,104.322 273.51,114.155 259.5,119C 236.571,122.209 223.571,112.376 220.5,89.5C 221.887,73.9946 229.887,63.9946 244.5,59.5 Z M 247.5,76.5 C 258.467,76.3012 263.967,81.6345 264,92.5C 261.032,100.737 255.198,103.904 246.5,102C 239.22,98.2685 236.72,92.4352 239,84.5C 241.074,80.9231 243.907,78.2565 247.5,76.5 Z"/></g>
<g><path style="opacity:0.937" fill="#000000" d="M 362.5,59.5 C 389.26,59.0884 401.094,72.0884 398,98.5C 391.273,115.618 378.773,122.451 360.5,119C 356.637,117.819 353.137,115.986 350,113.5C 327.305,129.695 304.472,145.695 281.5,161.5C 283.78,184.284 273.614,197.284 251,200.5C 244.582,199.573 238.415,198.073 232.5,196C 210.5,211.333 188.5,226.667 166.5,242C 168.219,256.895 162.886,268.562 150.5,277C 130.885,284.77 116.385,279.27 107,260.5C 102.451,242.268 108.618,229.268 125.5,221.5C 126.497,213.862 126.831,206.196 126.5,198.5C 117.014,195.851 110.514,189.851 107,180.5C 102.613,163.303 108.113,150.47 123.5,142C 147.895,136.024 162.228,145.358 166.5,170C 165.404,184.682 157.904,194.516 144,199.5C 143.5,206.826 143.334,214.159 143.5,221.5C 148.642,222.587 153.308,224.421 157.5,227C 179.631,212.018 201.298,196.518 222.5,180.5C 217.644,156.885 227.144,143.218 251,139.5C 259.019,139.615 266.019,142.282 272,147.5C 294.746,131.21 317.579,115.044 340.5,99C 335.992,79.1782 343.326,66.0116 362.5,59.5 Z M 356.5,87.5 C 357.972,80.8656 362.139,77.199 369,76.5C 381.813,79.7917 384.98,87.125 378.5,98.5C 375.229,102.089 371.229,103.256 366.5,102C 369.939,99.8614 373.106,97.3614 376,94.5C 379.07,84.8993 375.57,80.7326 365.5,82C 362.351,83.6618 359.351,85.4952 356.5,87.5 Z M 133.5,156.5 C 145.166,157 150,163 148,174.5C 147.163,176.844 145.829,178.844 144,180.5C 143.667,175.5 143.333,170.5 143,165.5C 142.5,163.667 141.333,162.5 139.5,162C 135.756,161.071 132.256,161.571 129,163.5C 127.02,168.277 126.02,173.277 126,178.5C 120.214,168.395 122.714,161.062 133.5,156.5 Z M 248.5,156.5 C 251.271,156.421 253.937,156.921 256.5,158C 250.403,161.799 244.569,165.965 239,170.5C 238.445,163.269 241.612,158.602 248.5,156.5 Z M 262.5,175.5 C 260.264,180.786 256.264,183.286 250.5,183C 254.402,180.249 258.402,177.749 262.5,175.5 Z M 146.5,256.5 C 145.233,260.257 142.566,262.424 138.5,263C 130.833,264.013 125.667,260.847 123,253.5C 121.886,248.959 122.886,244.959 126,241.5C 126.333,245.833 126.667,250.167 127,254.5C 128.756,260.964 132.923,263.13 139.5,261C 141.717,259.277 144.05,257.777 146.5,256.5 Z"/></g>
<g><path style="opacity:0.933" fill="#000000" d="M 364.5,139.5 C 387.932,139.432 399.432,151.098 399,174.5C 393.363,194.738 380.196,202.904 359.5,199C 342.288,191.744 335.788,178.911 340,160.5C 344.347,148.927 352.514,141.927 364.5,139.5 Z M 366.5,156.5 C 380.859,158.226 385.025,165.56 379,178.5C 371.709,185.314 364.709,184.98 358,177.5C 353.7,167.56 356.533,160.56 366.5,156.5 Z"/></g>
<g><path style="opacity:0.937" fill="#000000" d="M 246.5,218.5 C 289.391,217.184 319.891,235.851 338,274.5C 351.719,318.002 340.552,353.502 304.5,381C 295.955,386.233 286.955,390.4 277.5,393.5C 278.296,400.117 278.796,406.783 279,413.5C 282.098,415.928 284.431,418.928 286,422.5C 287.488,446.148 287.821,469.815 287,493.5C 285.5,499 282,502.5 276.5,504C 265.5,504.667 254.5,504.667 243.5,504C 239.725,502.558 236.892,500.058 235,496.5C 233.078,472.571 232.412,448.571 233,424.5C 234.457,419.905 237.124,416.239 241,413.5C 241.266,407.154 240.933,400.821 240,394.5C 189.077,380.683 165.077,347.35 168,294.5C 174.514,257.986 195.347,233.82 230.5,222C 235.954,220.745 241.287,219.578 246.5,218.5 Z M 248.5,235.5 C 288.014,235.315 313.514,253.981 325,291.5C 330.724,329.224 316.557,356.391 282.5,373C 247.323,384.494 218.489,375.661 196,346.5C 180.667,320.167 180.667,293.833 196,267.5C 208.904,249.298 226.404,238.631 248.5,235.5 Z M 247.5,260.5 C 269.302,258.65 285.802,266.984 297,285.5C 307.091,310.646 301.258,331.146 279.5,347C 260.072,356.922 241.739,355.256 224.5,342C 205.265,321.364 203.765,299.531 220,276.5C 227.649,268.43 236.816,263.096 247.5,260.5 Z M 257.5,395.5 C 258.833,395.5 260.167,395.5 261.5,395.5C 261.5,401.167 261.5,406.833 261.5,412.5C 260.5,412.5 259.5,412.5 258.5,412.5C 258.365,406.819 258.032,401.152 257.5,395.5 Z M 249.5,429.5 C 256.167,429.5 262.833,429.5 269.5,429.5C 270.326,448.821 270.659,468.155 270.5,487.5C 263.833,487.5 257.167,487.5 250.5,487.5C 250.328,468.163 249.995,448.83 249.5,429.5 Z"/></g>
<g><path style="opacity:0.929" fill="#000000" d="M 368.5,219.5 C 393.49,223.466 402.99,237.799 397,262.5C 387.818,278.675 374.318,283.842 356.5,278C 341.352,269.862 335.852,257.362 340,240.5C 345.209,227.432 354.709,220.432 368.5,219.5 Z M 364.5,237.5 C 379.085,237.03 384.251,243.697 380,257.5C 372.667,265.5 365.333,265.5 358,257.5C 353.871,248.72 356.038,242.053 364.5,237.5 Z"/></g>
<g><path style="opacity:0.939" fill="#000000" d="M 60.5,237.5 C 64.5966,237.575 67.7632,239.242 70,242.5C 70.5,267.164 70.6666,291.831 70.5,316.5C 97.1687,316.333 123.835,316.5 150.5,317C 157.16,319.49 158.993,323.99 156,330.5C 155.167,331.333 154.333,332.167 153.5,333C 121.081,333.985 88.7479,333.652 56.5,332C 55.1068,330.829 54.2735,329.329 54,327.5C 53.3333,299.833 53.3333,272.167 54,244.5C 55.0183,240.985 57.1849,238.652 60.5,237.5 Z"/></g>
<g><path style="opacity:0.937" fill="#000000" d="M 444.5,239.5 C 448.839,238.846 452.673,239.846 456,242.5C 456.333,243.5 456.667,244.5 457,245.5C 457.667,273.167 457.667,300.833 457,328.5C 456.654,330.848 455.487,332.681 453.5,334C 422.561,335.644 391.561,335.977 360.5,335C 353.84,332.51 352.007,328.01 355,321.5C 355.833,320.667 356.667,319.833 357.5,319C 385.165,318.5 412.831,318.333 440.5,318.5C 440.333,293.498 440.5,268.498 441,243.5C 442.376,242.295 443.542,240.962 444.5,239.5 Z"/></g>
<g><path style="opacity:0.931" fill="#000000" d="M 245.5,243.5 C 283.371,241.226 307.537,258.226 318,294.5C 322.24,326.188 310.406,349.688 282.5,365C 252.354,376.504 226.521,370.338 205,346.5C 187,320.167 187,293.833 205,267.5C 215.612,254.451 229.112,246.451 245.5,243.5 Z M 247.5,260.5 C 236.816,263.096 227.649,268.43 220,276.5C 203.765,299.531 205.265,321.364 224.5,342C 241.739,355.256 260.072,356.922 279.5,347C 301.258,331.146 307.091,310.646 297,285.5C 285.802,266.984 269.302,258.65 247.5,260.5 Z"/></g>
</svg>
