<?xml version="1.0" encoding="UTF-8"?>
<!DOCTYPE svg PUBLIC "-//W3C//DTD SVG 1.1//EN" "http://www.w3.org/Graphics/SVG/1.1/DTD/svg11.dtd">
<svg xmlns="http://www.w3.org/2000/svg" version="1.1" width="640px" height="640px" style="shape-rendering:geometricPrecision; text-rendering:geometricPrecision; image-rendering:optimizeQuality; fill-rule:evenodd; clip-rule:evenodd" xmlns:xlink="http://www.w3.org/1999/xlink">
<g><path style="opacity:1" fill="#fefefe" d="M -0.5,-0.5 C 212.833,-0.5 426.167,-0.5 639.5,-0.5C 639.5,212.833 639.5,426.167 639.5,639.5C 426.167,639.5 212.833,639.5 -0.5,639.5C -0.5,426.167 -0.5,212.833 -0.5,-0.5 Z"/></g>
<g><path style="opacity:1" fill="#050505" d="M 103.5,97.5 C 146.501,97.3333 189.501,97.5 232.5,98C 234,99.5 235.5,101 237,102.5C 238.658,155.084 238.991,207.75 238,260.5C 236.878,262.624 235.378,264.457 233.5,266C 190.584,267.656 147.584,267.989 104.5,267C 102.376,265.878 100.543,264.378 99,262.5C 97.3511,210.212 97.0177,157.879 98,105.5C 99.2433,102.424 101.077,99.7574 103.5,97.5 Z"/></g>
<g><path style="opacity:1" fill="#050505" d="M 422.5,97.5 C 465.501,97.3333 508.501,97.5 551.5,98C 553,99.5 554.5,101 556,102.5C 557.658,155.084 557.991,207.75 557,260.5C 555.878,262.624 554.378,264.457 552.5,266C 509.584,267.656 466.584,267.989 423.5,267C 421.376,265.878 419.543,264.378 418,262.5C 416.351,210.545 416.018,158.545 417,106.5C 417.794,102.871 419.628,99.8707 422.5,97.5 Z"/></g>
<g><path style="opacity:1" fill="#fefefe" d="M 118.5,117.5 C 151.5,117.5 184.5,117.5 217.5,117.5C 217.5,160.833 217.5,204.167 217.5,247.5C 184.5,247.5 151.5,247.5 118.5,247.5C 118.5,204.167 118.5,160.833 118.5,117.5 Z"/></g>
<g><path style="opacity:1" fill="#fdfdfd" d="M 437.5,117.5 C 470.5,117.5 503.5,117.5 536.5,117.5C 536.5,160.833 536.5,204.167 536.5,247.5C 503.5,247.5 470.5,247.5 437.5,247.5C 437.5,204.167 437.5,160.833 437.5,117.5 Z"/></g>
<g><path style="opacity:1" fill="#3bcdcd" d="M 358.5,305.5 C 359.46,297.791 357.793,290.791 353.5,284.5C 361.5,284.5 369.5,284.5 377.5,284.5C 377.5,241.5 377.5,198.5 377.5,155.5C 344.5,155.5 311.5,155.5 278.5,155.5C 278.5,198.5 278.5,241.5 278.5,284.5C 286.5,284.5 294.5,284.5 302.5,284.5C 298.207,290.791 296.54,297.791 297.5,305.5C 287.161,305.666 276.828,305.5 266.5,305C 262.501,304.332 259.668,302.165 258,298.5C 257.333,245.833 257.333,193.167 258,140.5C 259.5,138.333 261.333,136.5 263.5,135C 306.167,134.333 348.833,134.333 391.5,135C 395.165,136.668 397.332,139.501 398,143.5C 398.667,194.167 398.667,244.833 398,295.5C 396.904,300.26 394.071,303.427 389.5,305C 379.172,305.5 368.839,305.666 358.5,305.5 Z"/></g>
<g><path style="opacity:1" fill="#080808" d="M 146.5,150.5 C 162.224,150.063 177.891,150.563 193.5,152C 200.108,157.877 200.108,163.877 193.5,170C 192.167,170.333 190.833,170.667 189.5,171C 173.779,171.937 158.112,171.603 142.5,170C 136.729,165.105 136.062,159.605 140.5,153.5C 142.444,152.199 144.444,151.199 146.5,150.5 Z"/></g>
<g><path style="opacity:1" fill="#080808" d="M 465.5,150.5 C 481.224,150.063 496.891,150.563 512.5,152C 519.108,157.877 519.108,163.877 512.5,170C 511.167,170.333 509.833,170.667 508.5,171C 492.779,171.937 477.112,171.603 461.5,170C 455.729,165.105 455.062,159.605 459.5,153.5C 461.444,152.199 463.444,151.199 465.5,150.5 Z"/></g>
<g><path style="opacity:1" fill="#fefefe" d="M 353.5,284.5 C 343.688,271.708 331.022,267.875 315.5,273C 310.261,275.93 305.927,279.764 302.5,284.5C 294.5,284.5 286.5,284.5 278.5,284.5C 278.5,241.5 278.5,198.5 278.5,155.5C 311.5,155.5 344.5,155.5 377.5,155.5C 377.5,198.5 377.5,241.5 377.5,284.5C 369.5,284.5 361.5,284.5 353.5,284.5 Z"/></g>
<g><path style="opacity:1" fill="#3bcdcd" d="M 305.5,187.5 C 320.17,187.333 334.837,187.5 349.5,188C 357.418,190.576 359.918,195.743 357,203.5C 355.457,205.378 353.624,206.878 351.5,208C 335.5,208.667 319.5,208.667 303.5,208C 299.198,206.065 297.198,202.732 297.5,198C 297.739,192.6 300.406,189.1 305.5,187.5 Z"/></g>
<g><path style="opacity:1" fill="#080808" d="M 146.5,193.5 C 162.224,193.063 177.891,193.563 193.5,195C 200.108,200.877 200.108,206.877 193.5,213C 192.167,213.333 190.833,213.667 189.5,214C 173.779,214.937 158.112,214.603 142.5,213C 136.729,208.105 136.062,202.605 140.5,196.5C 142.444,195.199 144.444,194.199 146.5,193.5 Z"/></g>
<g><path style="opacity:1" fill="#080808" d="M 465.5,193.5 C 481.224,193.063 496.891,193.563 512.5,195C 519.108,200.877 519.108,206.877 512.5,213C 511.167,213.333 509.833,213.667 508.5,214C 492.779,214.937 477.112,214.603 461.5,213C 455.729,208.105 455.062,202.605 459.5,196.5C 461.444,195.199 463.444,194.199 465.5,193.5 Z"/></g>
<g><path style="opacity:1" fill="#3bcdcd" d="M 305.5,230.5 C 320.17,230.333 334.837,230.5 349.5,231C 357.418,233.576 359.918,238.743 357,246.5C 355.457,248.378 353.624,249.878 351.5,251C 335.5,251.667 319.5,251.667 303.5,251C 299.198,249.065 297.198,245.732 297.5,241C 297.739,235.6 300.406,232.1 305.5,230.5 Z"/></g>
<g><path style="opacity:1" fill="#050505" d="M 353.5,284.5 C 357.793,290.791 359.46,297.791 358.5,305.5C 358.5,319.5 358.5,333.5 358.5,347.5C 371.145,345.077 382.312,348.077 392,356.5C 414.539,347.507 430.372,354.174 439.5,376.5C 458.971,372.158 472.138,379.492 479,398.5C 479.667,418.5 479.667,438.5 479,458.5C 469.69,514.81 436.857,547.31 380.5,556C 329.139,558.412 292.306,536.578 270,490.5C 260,462.5 250,434.5 240,406.5C 239.702,379.798 252.868,366.964 279.5,368C 286.438,369.217 292.271,372.384 297,377.5C 297.5,353.502 297.667,329.502 297.5,305.5C 296.54,297.791 298.207,290.791 302.5,284.5C 305.927,279.764 310.261,275.93 315.5,273C 331.022,267.875 343.688,271.708 353.5,284.5 Z"/></g>
<g><path style="opacity:1" fill="#fdfdfd" d="M 323.5,291.5 C 329.21,290.275 333.71,291.941 337,296.5C 337.333,338.833 337.667,381.167 338,423.5C 339.884,431.387 344.718,434.22 352.5,432C 354.57,431.052 356.07,429.552 357,427.5C 358.279,409.552 358.946,391.552 359,373.5C 361.919,367.975 366.419,366.142 372.5,368C 375,369.167 376.833,371 378,373.5C 378.333,390.833 378.667,408.167 379,425.5C 381.425,431.795 385.925,433.962 392.5,432C 395,430.833 396.833,429 398,426.5C 398.333,411.167 398.667,395.833 399,380.5C 401.229,373.968 405.729,371.468 412.5,373C 415,374.167 416.833,376 418,378.5C 418.333,394.167 418.667,409.833 419,425.5C 421.779,432.049 426.612,434.216 433.5,432C 435,430.5 436.5,429 438,427.5C 439.215,418.56 439.882,409.56 440,400.5C 446.047,393.842 452.047,393.842 458,400.5C 458.667,420.167 458.667,439.833 458,459.5C 451.613,496.777 430.446,521.277 394.5,533C 348.907,542.782 314.407,527.615 291,487.5C 281,460.167 271,432.833 261,405.5C 259.87,390.625 266.37,385.458 280.5,390C 282,391.5 283.5,393 285,394.5C 289.864,405.066 295.364,415.232 301.5,425C 308.835,428.777 314.335,426.944 318,419.5C 318.333,378.5 318.667,337.5 319,296.5C 320.366,294.638 321.866,292.972 323.5,291.5 Z"/></g>
</svg>
