<?xml version="1.0" encoding="UTF-8"?>
<!DOCTYPE svg PUBLIC "-//W3C//DTD SVG 1.1//EN" "http://www.w3.org/Graphics/SVG/1.1/DTD/svg11.dtd">
<svg xmlns="http://www.w3.org/2000/svg" version="1.1" width="640px" height="640px" style="shape-rendering:geometricPrecision; text-rendering:geometricPrecision; image-rendering:optimizeQuality; fill-rule:evenodd; clip-rule:evenodd" xmlns:xlink="http://www.w3.org/1999/xlink">
<g><path style="opacity:1" fill="#fefefe" d="M -0.5,-0.5 C 212.833,-0.5 426.167,-0.5 639.5,-0.5C 639.5,212.833 639.5,426.167 639.5,639.5C 426.167,639.5 212.833,639.5 -0.5,639.5C -0.5,426.167 -0.5,212.833 -0.5,-0.5 Z"/></g>
<g><path style="opacity:1" fill="#797979" d="M 134.5,90.5 C 257.333,89.334 380.333,89.1673 503.5,90C 504.416,90.2784 505.082,90.7784 505.5,91.5C 381.855,90.5073 258.188,90.174 134.5,90.5 Z"/></g>
<g><path style="opacity:1" fill="#020202" d="M 134.5,90.5 C 258.188,90.174 381.855,90.5073 505.5,91.5C 522.284,96.617 532.951,107.617 537.5,124.5C 537.825,255.184 537.491,385.851 536.5,516.5C 532.793,530.204 524.459,539.871 511.5,545.5C 508.458,545.733 505.792,546.733 503.5,548.5C 381.118,549.828 258.785,549.828 136.5,548.5C 133.855,546.69 130.855,545.69 127.5,545.5C 113.767,539.432 105.1,529.099 101.5,514.5C 100.507,384.855 100.174,255.188 100.5,125.5C 105.751,107.915 117.085,96.2487 134.5,90.5 Z"/></g>
<g><path style="opacity:1" fill="#5f5f5f" d="M 499.5,110.5 C 378.478,110.174 257.478,110.507 136.5,111.5C 137.263,110.732 138.263,110.232 139.5,110C 259.667,109.167 379.667,109.334 499.5,110.5 Z"/></g>
<g><path style="opacity:1" fill="#fefefe" d="M 499.5,110.5 C 506.567,112.555 511.901,116.888 515.5,123.5C 515.678,126.216 516.178,128.883 517,131.5C 517.5,148.497 517.667,165.497 517.5,182.5C 385.5,182.5 253.5,182.5 121.5,182.5C 121.5,164.833 121.5,147.167 121.5,129.5C 123.599,121.069 128.599,115.069 136.5,111.5C 257.478,110.507 378.478,110.174 499.5,110.5 Z"/></g>
<g><path style="opacity:1" fill="#070707" d="M 453.5,128.5 C 459.203,127.557 464.203,128.89 468.5,132.5C 469.364,130.803 470.697,129.637 472.5,129C 487.399,128.223 491.066,134.223 483.5,147C 489.409,154.06 488.742,160.394 481.5,166C 476.311,167.295 471.811,166.128 468,162.5C 458.67,169.445 452.17,167.445 448.5,156.5C 448.893,152.778 450.559,149.778 453.5,147.5C 447.05,141.017 447.05,134.683 453.5,128.5 Z"/></g>
<g><path style="opacity:1" fill="#9f9f9f" d="M 395.5,146.5 C 404.657,145.342 413.991,145.176 423.5,146C 424.056,146.383 424.389,146.883 424.5,147.5C 414.873,146.579 405.206,146.245 395.5,146.5 Z"/></g>
<g><path style="opacity:1" fill="#060606" d="M 395.5,146.5 C 405.206,146.245 414.873,146.579 424.5,147.5C 430.161,151.892 430.995,157.225 427,163.5C 425.581,164.46 424.081,165.293 422.5,166C 413.5,166.667 404.5,166.667 395.5,166C 390.206,162.565 388.373,157.732 390,151.5C 391.704,149.627 393.537,147.96 395.5,146.5 Z"/></g>
<g><path style="opacity:1" fill="#e3e3e3" d="M 515.5,123.5 C 516.927,125.148 517.76,127.148 518,129.5C 518.5,147.497 518.667,165.497 518.5,183.5C 385.999,183.833 253.666,183.5 121.5,182.5C 253.5,182.5 385.5,182.5 517.5,182.5C 517.667,165.497 517.5,148.497 517,131.5C 516.178,128.883 515.678,126.216 515.5,123.5 Z"/></g>
<g><path style="opacity:1" fill="#7b7b7b" d="M 121.5,129.5 C 121.5,147.167 121.5,164.833 121.5,182.5C 253.666,183.5 385.999,183.833 518.5,183.5C 386.001,184.5 253.334,184.833 120.5,184.5C 120.17,165.992 120.503,147.659 121.5,129.5 Z"/></g>
<g><path style="opacity:1" fill="#d1d1d1" d="M 100.5,125.5 C 100.174,255.188 100.507,384.855 101.5,514.5C 100.883,514.389 100.383,514.056 100,513.5C 99.1673,383.999 99.334,254.666 100.5,125.5 Z"/></g>
<g><path style="opacity:1" fill="#141414" d="M 537.5,124.5 C 538.666,253.999 538.833,383.666 538,513.5C 537.768,514.737 537.268,515.737 536.5,516.5C 537.491,385.851 537.825,255.184 537.5,124.5 Z"/></g>
<g><path style="opacity:1" fill="#131313" d="M 120.5,204.5 C 120.167,305.668 120.501,406.668 121.5,507.5C 121.629,509.216 121.962,510.883 122.5,512.5C 121.034,511.653 120.2,510.32 120,508.5C 119.167,406.999 119.334,305.666 120.5,204.5 Z"/></g>
<g><path style="opacity:1" fill="#fefefe" d="M 516.5,511.5 C 514.14,519.86 508.807,525.193 500.5,527.5C 378.478,527.826 256.478,527.493 134.5,526.5C 128.716,523.381 124.716,518.715 122.5,512.5C 121.962,510.883 121.629,509.216 121.5,507.5C 121.5,406.833 121.5,306.167 121.5,205.5C 253.5,205.5 385.5,205.5 517.5,205.5C 517.827,307.528 517.493,409.528 516.5,511.5 Z"/></g>
<g><path style="opacity:1" fill="#c4c4c4" d="M 120.5,204.5 C 253.167,204.5 385.833,204.5 518.5,204.5C 518.667,306.167 518.5,407.834 518,509.5C 517.722,510.416 517.222,511.082 516.5,511.5C 517.493,409.528 517.827,307.528 517.5,205.5C 385.5,205.5 253.5,205.5 121.5,205.5C 121.5,306.167 121.5,406.833 121.5,507.5C 120.501,406.668 120.167,305.668 120.5,204.5 Z"/></g>
<g><path style="opacity:1" fill="#3acdcd" d="M 313.5,222.5 C 323.11,221.609 331.277,224.609 338,231.5C 346.333,244.167 354.667,256.833 363,269.5C 364.627,275.732 362.794,280.565 357.5,284C 331.833,284.667 306.167,284.667 280.5,284C 274.884,278.914 274.051,273.081 278,266.5C 286,254.5 294,242.5 302,230.5C 305.482,227.161 309.315,224.494 313.5,222.5 Z"/></g>
<g><path style="opacity:1" fill="#f9fdfd" d="M 331.5,260.5 C 331.414,261.496 331.748,262.329 332.5,263C 323.657,263.824 314.99,263.657 306.5,262.5C 309.392,257.057 312.559,251.724 316,246.5C 317.062,245.101 318.395,244.101 320,243.5C 324.445,248.774 328.279,254.441 331.5,260.5 Z"/></g>
<g><path style="opacity:1" fill="#b5eceb" d="M 331.5,260.5 C 333.104,261.287 333.771,262.62 333.5,264.5C 324.143,264.832 314.81,264.498 305.5,263.5C 305.624,262.893 305.957,262.56 306.5,262.5C 314.99,263.657 323.657,263.824 332.5,263C 331.748,262.329 331.414,261.496 331.5,260.5 Z"/></g>
<g><path style="opacity:1" fill="#4d4d4d" d="M 329.5,297.5 C 321.133,297.295 312.8,297.629 304.5,298.5C 305.263,297.732 306.263,297.232 307.5,297C 315.012,296.178 322.345,296.345 329.5,297.5 Z"/></g>
<g><path style="opacity:1" fill="#040404" d="M 329.5,297.5 C 343.714,301.05 354.048,309.384 360.5,322.5C 363.175,331.589 364.175,340.923 363.5,350.5C 363.483,352.565 363.15,354.565 362.5,356.5C 361.094,356.973 360.427,357.973 360.5,359.5C 358.315,364.686 355.315,369.353 351.5,373.5C 362.494,380.995 371.661,390.328 379,401.5C 379.561,404.279 380.394,406.946 381.5,409.5C 382.129,412.397 383.129,415.064 384.5,417.5C 386.775,424.679 385.109,430.846 379.5,436C 339.5,436.667 299.5,436.667 259.5,436C 253.918,431.309 252.251,425.476 254.5,418.5C 256.277,415.495 257.277,412.162 257.5,408.5C 258.167,406.833 258.833,405.167 259.5,403.5C 260.906,403.027 261.573,402.027 261.5,400.5C 268.077,389.588 276.744,380.588 287.5,373.5C 283.991,369.145 280.991,364.478 278.5,359.5C 277.871,356.603 276.871,353.936 275.5,351.5C 275.5,351.167 275.5,350.833 275.5,350.5C 275.309,342.799 275.642,335.132 276.5,327.5C 281.756,313.91 291.089,304.244 304.5,298.5C 312.8,297.629 321.133,297.295 329.5,297.5 Z"/></g>
<g><path style="opacity:1" fill="#888888" d="M 324.5,317.5 C 319.797,317.437 315.13,317.771 310.5,318.5C 313.017,317.027 315.85,316.36 319,316.5C 321.033,316.506 322.866,316.839 324.5,317.5 Z"/></g>
<g><path style="opacity:1" fill="#fbfbfb" d="M 324.5,317.5 C 332.167,319.161 337.834,323.494 341.5,330.5C 343.085,335.678 343.752,341.012 343.5,346.5C 342.463,347.93 341.796,349.597 341.5,351.5C 334.833,364.105 324.5,368.438 310.5,364.5C 310.027,363.094 309.027,362.427 307.5,362.5C 302.798,360.129 299.464,356.462 297.5,351.5C 297.204,349.597 296.537,347.93 295.5,346.5C 295.248,341.012 295.915,335.678 297.5,330.5C 300.554,325.113 304.887,321.113 310.5,318.5C 315.13,317.771 319.797,317.437 324.5,317.5 Z"/></g>
<g><path style="opacity:1" fill="#36cccc" d="M 216.5,324.5 C 222.801,323.314 227.634,325.314 231,330.5C 231.667,355.833 231.667,381.167 231,406.5C 227.252,412.542 222.085,414.042 215.5,411C 202.833,402.667 190.167,394.333 177.5,386C 166.555,373.641 166.888,361.641 178.5,350C 191.405,341.725 204.071,333.225 216.5,324.5 Z"/></g>
<g><path style="opacity:1" fill="#37cccc" d="M 413.5,324.5 C 417.792,324.035 421.792,324.868 425.5,327C 437.167,334.667 448.833,342.333 460.5,350C 471.981,361.579 472.315,373.579 461.5,386C 450.328,393.085 439.328,400.419 428.5,408C 425.395,410.443 421.895,411.943 418,412.5C 413.313,412.152 409.979,409.819 408,405.5C 407.333,380.5 407.333,355.5 408,330.5C 409.36,327.977 411.193,325.977 413.5,324.5 Z"/></g>
<g><path style="opacity:1" fill="#5b5b5b" d="M 360.5,322.5 C 362.129,324.858 363.295,327.524 364,330.5C 364.821,337.346 364.654,344.013 363.5,350.5C 364.175,340.923 363.175,331.589 360.5,322.5 Z"/></g>
<g><path style="opacity:1" fill="#696969" d="M 276.5,327.5 C 275.642,335.132 275.309,342.799 275.5,350.5C 274.346,344.013 274.179,337.346 275,330.5C 275.232,329.263 275.732,328.263 276.5,327.5 Z"/></g>
<g><path style="opacity:1" fill="#747474" d="M 297.5,330.5 C 295.915,335.678 295.248,341.012 295.5,346.5C 294.357,343.024 294.19,339.358 295,335.5C 295.374,333.509 296.207,331.842 297.5,330.5 Z"/></g>
<g><path style="opacity:1" fill="#818181" d="M 341.5,330.5 C 342.793,331.842 343.626,333.509 344,335.5C 344.81,339.358 344.643,343.024 343.5,346.5C 343.752,341.012 343.085,335.678 341.5,330.5 Z"/></g>
<g><path style="opacity:1" fill="#6d6d6d" d="M 295.5,346.5 C 296.537,347.93 297.204,349.597 297.5,351.5C 295.787,350.365 295.12,348.698 295.5,346.5 Z"/></g>
<g><path style="opacity:1" fill="#7a7a7a" d="M 343.5,346.5 C 343.88,348.698 343.213,350.365 341.5,351.5C 341.796,349.597 342.463,347.93 343.5,346.5 Z"/></g>
<g><path style="opacity:1" fill="#fbfefe" d="M 209.5,354.5 C 210.494,363.652 210.827,372.985 210.5,382.5C 204.861,379.011 199.195,375.511 193.5,372C 190.79,370.54 190.124,368.54 191.5,366C 197.698,362.406 203.698,358.572 209.5,354.5 Z"/></g>
<g><path style="opacity:1" fill="#aae9e9" d="M 209.5,354.5 C 209.56,353.957 209.893,353.624 210.5,353.5C 211.823,363.325 211.823,372.992 210.5,382.5C 210.827,372.985 210.494,363.652 209.5,354.5 Z"/></g>
<g><path style="opacity:1" fill="#898989" d="M 275.5,351.5 C 276.871,353.936 277.871,356.603 278.5,359.5C 276.345,357.383 275.345,354.716 275.5,351.5 Z"/></g>
<g><path style="opacity:1" fill="#fcfefe" d="M 428.5,354.5 C 435.718,358.269 442.385,362.769 448.5,368C 447.899,369.605 446.899,370.938 445.5,372C 439.915,375.375 434.415,378.875 429,382.5C 428.5,373.173 428.334,363.839 428.5,354.5 Z"/></g>
<g><path style="opacity:1" fill="#717171" d="M 362.5,356.5 C 362.573,358.027 361.906,359.027 360.5,359.5C 360.427,357.973 361.094,356.973 362.5,356.5 Z"/></g>
<g><path style="opacity:1" fill="#818181" d="M 307.5,362.5 C 309.027,362.427 310.027,363.094 310.5,364.5C 308.973,364.573 307.973,363.906 307.5,362.5 Z"/></g>
<g><path style="opacity:1" fill="#fafafa" d="M 360.5,411.5 C 360.5,412.833 360.5,414.167 360.5,415.5C 333.167,415.5 305.833,415.5 278.5,415.5C 278.5,414.167 278.5,412.833 278.5,411.5C 283.733,400.706 292.067,393.373 303.5,389.5C 305.898,389.741 307.898,389.074 309.5,387.5C 327.171,384.417 342.338,389.417 355,402.5C 357.358,405.222 359.191,408.222 360.5,411.5 Z"/></g>
<g><path style="opacity:1" fill="#989898" d="M 309.5,387.5 C 307.898,389.074 305.898,389.741 303.5,389.5C 305.102,387.926 307.102,387.259 309.5,387.5 Z"/></g>
<g><path style="opacity:1" fill="#757575" d="M 261.5,400.5 C 261.573,402.027 260.906,403.027 259.5,403.5C 259.427,401.973 260.094,400.973 261.5,400.5 Z"/></g>
<g><path style="opacity:1" fill="#636363" d="M 257.5,408.5 C 257.277,412.162 256.277,415.495 254.5,418.5C 254.723,414.838 255.723,411.505 257.5,408.5 Z"/></g>
<g><path style="opacity:1" fill="#8a8a8a" d="M 381.5,409.5 C 383.655,411.617 384.655,414.284 384.5,417.5C 383.129,415.064 382.129,412.397 381.5,409.5 Z"/></g>
<g><path style="opacity:1" fill="#9f9f9f" d="M 278.5,411.5 C 278.5,412.833 278.5,414.167 278.5,415.5C 305.833,415.5 333.167,415.5 360.5,415.5C 360.5,414.167 360.5,412.833 360.5,411.5C 361.931,412.78 362.598,414.447 362.5,416.5C 334.167,416.5 305.833,416.5 277.5,416.5C 277.5,415.5 277.5,414.5 277.5,413.5C 277.328,412.508 277.662,411.842 278.5,411.5 Z"/></g>
<g><path style="opacity:1" fill="#212121" d="M 277.5,413.5 C 277.5,414.5 277.5,415.5 277.5,416.5C 305.833,416.5 334.167,416.5 362.5,416.5C 334.005,417.498 305.338,417.831 276.5,417.5C 276.232,415.901 276.566,414.568 277.5,413.5 Z"/></g>
<g><path style="opacity:1" fill="#82dfdf" d="M 357.5,452.5 C 331.474,452.203 305.474,452.536 279.5,453.5C 279.918,452.778 280.584,452.278 281.5,452C 307.003,451.17 332.337,451.337 357.5,452.5 Z"/></g>
<g><path style="opacity:1" fill="#39cdcd" d="M 357.5,452.5 C 363.057,455.196 364.89,459.53 363,465.5C 353.945,481.115 343.778,495.948 332.5,510C 324.385,514.268 316.052,514.602 307.5,511C 295.643,496.792 285.143,481.625 276,465.5C 274.593,460.643 275.76,456.643 279.5,453.5C 305.474,452.536 331.474,452.203 357.5,452.5 Z"/></g>
<g><path style="opacity:1" fill="#f9fdfd" d="M 305.5,472.5 C 314.857,472.168 324.19,472.502 333.5,473.5C 329.417,479.331 325.584,485.331 322,491.5C 319.415,492.885 317.415,492.218 316,489.5C 312.248,483.931 308.748,478.264 305.5,472.5 Z"/></g>
<g><path style="opacity:1" fill="#bfbfbf" d="M 134.5,526.5 C 256.478,527.493 378.478,527.826 500.5,527.5C 499.391,528.29 498.058,528.79 496.5,529C 377.833,529.667 259.167,529.667 140.5,529C 138.277,528.434 136.277,527.6 134.5,526.5 Z"/></g>
<g><path style="opacity:1" fill="#4e4e4e" d="M 127.5,545.5 C 130.855,545.69 133.855,546.69 136.5,548.5C 133.084,548.472 130.084,547.472 127.5,545.5 Z"/></g>
<g><path style="opacity:1" fill="#949494" d="M 511.5,545.5 C 509.316,547.585 506.649,548.585 503.5,548.5C 505.792,546.733 508.458,545.733 511.5,545.5 Z"/></g>
</svg>
