<?xml version="1.0" encoding="UTF-8"?>
<!DOCTYPE svg PUBLIC "-//W3C//DTD SVG 1.1//EN" "http://www.w3.org/Graphics/SVG/1.1/DTD/svg11.dtd">
<svg xmlns="http://www.w3.org/2000/svg" version="1.1" width="640px" height="640px" style="shape-rendering:geometricPrecision; text-rendering:geometricPrecision; image-rendering:optimizeQuality; fill-rule:evenodd; clip-rule:evenodd" xmlns:xlink="http://www.w3.org/1999/xlink">
<g><path style="opacity:1" fill="#fefefe" d="M -0.5,-0.5 C 212.833,-0.5 426.167,-0.5 639.5,-0.5C 639.5,212.833 639.5,426.167 639.5,639.5C 426.167,639.5 212.833,639.5 -0.5,639.5C -0.5,426.167 -0.5,212.833 -0.5,-0.5 Z"/></g>
<g><path style="opacity:1" fill="#050505" d="M 425.5,89.5 C 449.836,89.3334 474.169,89.5 498.5,90C 523.505,93.6707 540.005,107.504 548,131.5C 549.648,241.48 549.981,351.48 549,461.5C 544.081,491.422 526.915,510.255 497.5,518C 399.185,519.474 300.851,519.974 202.5,519.5C 202.666,526.841 202.5,534.174 202,541.5C 200.833,545.333 198.333,547.833 194.5,549C 177.5,549.667 160.5,549.667 143.5,549C 113.64,543.14 95.8062,525.306 90,495.5C 89.3333,404.5 89.3333,313.5 90,222.5C 94.3,198.867 108.133,184.367 131.5,179C 227.166,178.5 322.833,178.333 418.5,178.5C 418.333,150.831 418.5,123.165 419,95.5C 420.914,93.1435 423.081,91.1435 425.5,89.5 Z"/></g>
<g><path style="opacity:1" fill="#fefefe" d="M 438.5,110.5 C 460.878,110.054 483.211,110.554 505.5,112C 528.275,123.325 534.109,140.492 523,163.5C 517.072,170.76 509.572,175.593 500.5,178C 479.836,178.5 459.169,178.667 438.5,178.5C 438.5,155.833 438.5,133.167 438.5,110.5 Z"/></g>
<g><path style="opacity:1" fill="#424242" d="M 527.5,187.5 C 527.56,186.957 527.893,186.624 528.5,186.5C 529.832,276.666 529.832,366.666 528.5,456.5C 528.833,366.665 528.499,276.998 527.5,187.5 Z"/></g>
<g><path style="opacity:1" fill="#fefefe" d="M 527.5,187.5 C 528.499,276.998 528.833,366.665 528.5,456.5C 526.23,479.271 513.897,493.105 491.5,498C 395.167,498.5 298.834,498.667 202.5,498.5C 202.667,419.833 202.5,341.166 202,262.5C 200.5,260.333 198.667,258.5 196.5,257C 176.167,256.667 155.833,256.333 135.5,256C 116.172,250.677 108.339,238.177 112,218.5C 116.775,208.356 124.608,201.856 135.5,199C 257.833,198.667 380.167,198.333 502.5,198C 511.8,196.68 520.133,193.18 527.5,187.5 Z"/></g>
<g><path style="opacity:1" fill="#3acdcd" d="M 248.5,255.5 C 316.834,255.333 385.167,255.5 453.5,256C 456.333,257.5 458.5,259.667 460,262.5C 460.667,287.833 460.667,313.167 460,338.5C 458.332,342.165 455.499,344.332 451.5,345C 384.167,345.667 316.833,345.667 249.5,345C 245.202,343.23 242.702,340.063 242,335.5C 241.333,311.833 241.333,288.167 242,264.5C 242.873,260.475 245.039,257.475 248.5,255.5 Z"/></g>
<g><path style="opacity:1" fill="#fefefe" d="M 110.5,267.5 C 117.52,272.007 125.187,274.84 133.5,276C 149.497,276.5 165.497,276.667 181.5,276.5C 181.5,360.5 181.5,444.5 181.5,528.5C 168.496,528.667 155.496,528.5 142.5,528C 127.601,524.102 117.435,514.936 112,500.5C 110.515,422.87 110.015,345.203 110.5,267.5 Z"/></g>
<g><path style="opacity:1" fill="#fefffe" d="M 262.5,276.5 C 288.5,276.5 314.5,276.5 340.5,276.5C 340.5,292.5 340.5,308.5 340.5,324.5C 314.5,324.5 288.5,324.5 262.5,324.5C 262.5,308.5 262.5,292.5 262.5,276.5 Z"/></g>
<g><path style="opacity:1" fill="#fefffe" d="M 361.5,276.5 C 387.5,276.5 413.5,276.5 439.5,276.5C 439.5,292.5 439.5,308.5 439.5,324.5C 413.5,324.5 387.5,324.5 361.5,324.5C 361.5,308.5 361.5,292.5 361.5,276.5 Z"/></g>
<g><path style="opacity:1" fill="#080808" d="M 254.5,378.5 C 319.834,378.333 385.168,378.5 450.5,379C 459.352,381.855 461.518,387.355 457,395.5C 455.2,397.317 453.034,398.484 450.5,399C 384.833,399.667 319.167,399.667 253.5,399C 246.037,395.277 244.203,389.777 248,382.5C 250.013,380.752 252.18,379.418 254.5,378.5 Z"/></g>
<g><path style="opacity:1" fill="#3ecdcd" d="M 251.5,433.5 C 261.271,432.441 266.104,436.774 266,446.5C 263.221,453.049 258.388,455.216 251.5,453C 245.975,450.081 244.142,445.581 246,439.5C 247.36,436.977 249.193,434.977 251.5,433.5 Z"/></g>
<g><path style="opacity:1" fill="#39cdcd" d="M 305.5,432.5 C 352.835,432.333 400.168,432.5 447.5,433C 456.52,435.867 458.687,441.367 454,449.5C 452.59,450.787 451.09,451.954 449.5,453C 401.5,453.667 353.5,453.667 305.5,453C 297.025,449.894 294.859,444.394 299,436.5C 301.013,434.752 303.18,433.418 305.5,432.5 Z"/></g>
</svg>
