<?xml version="1.0" encoding="UTF-8"?>
<!DOCTYPE svg PUBLIC "-//W3C//DTD SVG 1.1//EN" "http://www.w3.org/Graphics/SVG/1.1/DTD/svg11.dtd">
<svg xmlns="http://www.w3.org/2000/svg" version="1.1" width="50px" height="50px" style="shape-rendering:geometricPrecision; text-rendering:geometricPrecision; image-rendering:optimizeQuality; fill-rule:evenodd; clip-rule:evenodd" xmlns:xlink="http://www.w3.org/1999/xlink">
<g><path style="opacity:0.988" fill="#4a83b0" d="M 17.5,-0.5 C 22.1667,-0.5 26.8333,-0.5 31.5,-0.5C 40.5,2.5 46.5,8.5 49.5,17.5C 49.5,22.1667 49.5,26.8333 49.5,31.5C 46.5908,40.0766 40.9241,46.0766 32.5,49.5C 27.1667,49.5 21.8333,49.5 16.5,49.5C 8.07587,46.0766 2.40921,40.0766 -0.5,31.5C -0.5,26.8333 -0.5,22.1667 -0.5,17.5C 2.5,8.5 8.5,2.5 17.5,-0.5 Z"/></g>
<g><path style="opacity:1" fill="#f0f5f8" d="M 30.5,16.5 C 31.5,16.5 32.5,16.5 33.5,16.5C 33.5,17.5 33.5,18.5 33.5,19.5C 32.5,19.5 31.5,19.5 30.5,19.5C 30.5,18.5 30.5,17.5 30.5,16.5 Z"/></g>
<g><path style="opacity:1" fill="#eff4f8" d="M 14.5,17.5 C 15.8333,17.5 17.1667,17.5 18.5,17.5C 19.3597,20.911 20.5263,24.2444 22,27.5C 23,24.5 24,21.5 25,18.5C 26.0113,17.6634 27.1779,17.33 28.5,17.5C 27.3883,23.0165 25.2216,28.0165 22,32.5C 21.228,32.3552 20.5613,32.0219 20,31.5C 18.2581,26.77 16.4247,22.1033 14.5,17.5 Z"/></g>
<g><path style="opacity:1" fill="#ecf2f7" d="M 30.5,20.5 C 31.5,20.5 32.5,20.5 33.5,20.5C 33.5,24.5 33.5,28.5 33.5,32.5C 32.5,32.5 31.5,32.5 30.5,32.5C 30.5,28.5 30.5,24.5 30.5,20.5 Z"/></g>
</svg>
